<svg width="92" height="133" viewBox="0 0 92 133" fill="none" xmlns="http://www.w3.org/2000/svg">
<path d="M75.2946 35.4902L62.6501 36.0459C62.5328 36.0485 62.4707 35.9066 62.5529 35.8225L83.9843 13.3451C84.0664 13.261 84.2084 13.317 84.2111 13.434L84.3218 44.5005C84.325 44.6268 84.1656 44.6847 84.0863 44.5856L75.4014 35.541C75.375 35.5079 75.3351 35.4888 75.2946 35.4902Z" fill="#B7DF30"/>
<path d="M81.9028 42.0309L83.6982 13.5696L84.0859 44.586L81.9028 42.0309Z" fill="#F8F9F4"/>
<path d="M62.0231 35.7768C62.0468 35.6694 62.0993 35.5671 62.1777 35.4822L72.1469 24.2046C72.3319 23.9957 72.6516 23.9758 72.8624 24.1609C73.0719 24.3457 73.0922 24.6647 72.9069 24.8749L63.5121 35.5028L75.2711 34.9855C75.275 34.985 75.2803 34.9849 75.2842 34.9845C75.4707 34.9804 75.6527 35.0608 75.7762 35.2007L83.8114 43.5685L83.7078 14.3249L78.9612 18.9632C78.7611 19.1585 78.4401 19.1548 78.2443 18.9549C78.0485 18.755 78.0518 18.4347 78.2519 18.2395L83.6304 12.9848C83.8016 12.8091 84.0725 12.7512 84.3127 12.8445C84.5526 12.9389 84.7114 13.1656 84.718 13.4234L84.8289 44.5002C84.8357 44.7631 84.6668 45.0106 84.4075 45.1034C84.1596 45.1923 83.8834 45.1209 83.7114 44.9249L75.1458 36.0037L62.6754 36.5527C62.403 36.5585 62.1676 36.4081 62.0648 36.1692C62.0059 36.0422 61.9947 35.9051 62.0231 35.7768ZM84.347 13.6986L84.3339 13.7112C84.3387 13.7071 84.3422 13.7027 84.347 13.6986ZM83.8132 44.5112L83.8125 44.4968C83.8139 44.5023 83.8128 44.5072 83.8132 44.5112Z" fill="#377262"/>
<path d="M74.8646 35.3826C74.8703 35.3566 74.8788 35.33 74.8882 35.3049L79.5185 23.6573C79.6213 23.3979 79.9165 23.2715 80.1766 23.3744C80.4367 23.4772 80.5636 23.7719 80.4608 24.0314L75.8293 35.6787C75.7265 35.9382 75.4313 36.0645 75.1712 35.9617C74.9375 35.8686 74.8119 35.6207 74.8646 35.3826Z" fill="#377262"/>
<path opacity="0.15" d="M27.4702 49.2114C27.0844 49.3623 26.7108 49.5297 26.3486 49.7105C26.4224 49.6739 26.4948 49.6345 26.5693 49.5993C26.8645 49.4593 27.1649 49.3299 27.4702 49.2114ZM27.4702 49.2114C27.4976 49.2007 27.5254 49.1911 27.553 49.1807C27.5254 49.1912 27.4975 49.2006 27.4702 49.2114ZM7.13891 117.812C5.32156 117.799 3.51289 117.676 1.72605 117.441L1.06817 117.35C1.06653 117.35 1.06553 117.349 1.06531 117.349C1.06476 117.349 1.06377 117.348 1.06287 117.347L1.06233 117.345L1.06276 117.343L1.06413 117.341C1.06516 117.34 1.06666 117.34 1.06741 117.34L1.06837 117.34C3.08814 117.637 5.11611 117.792 7.13891 117.812ZM26.2769 49.7457C23.3145 51.2466 21.1877 53.6845 19.9206 56.2435C19.2844 57.5284 18.8441 58.8524 18.5913 60.1752C18.845 58.8265 19.2845 57.4953 19.9069 56.2375C21.311 53.4027 23.5684 51.1114 26.2769 49.7457ZM18.5044 60.6811C18.5217 60.5684 18.5412 60.4561 18.5611 60.3436C18.5409 60.4561 18.5219 60.5686 18.5044 60.6811ZM18.4326 61.2143C18.4405 61.1458 18.45 61.0775 18.4589 61.0091C18.4499 61.0776 18.4406 61.1459 18.4326 61.2143ZM18.3803 61.7538C18.3839 61.708 18.3877 61.6622 18.3917 61.6163C18.3876 61.6622 18.3839 61.708 18.3803 61.7538ZM18.3478 62.2987C18.3491 62.2684 18.3506 62.238 18.352 62.2076C18.3506 62.238 18.349 62.2684 18.3478 62.2987ZM18.3368 62.9144C18.3366 62.8505 18.3375 62.7866 18.3381 62.7226C18.3376 62.7866 18.3365 62.8505 18.3368 62.9144ZM18.3541 63.5553C18.3486 63.4439 18.3448 63.3323 18.3421 63.2206C18.3451 63.3324 18.3483 63.444 18.3541 63.5553ZM45.3889 74.942C43.9802 75.5819 42.5752 76.0913 41.1815 76.4612C34.613 78.2046 28.504 76.9346 22.9836 72.667C20.5521 70.7873 19.0029 68.1491 18.5028 65.0224C18.4329 64.585 18.3893 64.142 18.3629 63.6963C18.5817 67.217 20.1642 70.4709 22.9943 72.6593C28.4898 76.9083 34.6226 78.192 41.1786 76.4516C42.6058 76.0726 44.0106 75.5632 45.3889 74.942ZM54.5617 68.9188L54.5636 68.9283L54.5573 68.9339L54.5212 68.6678C54.3441 67.3321 54.078 66.0194 53.7214 64.7395C51.4787 56.6849 45.7639 51.0508 37.6564 48.9C36.1565 48.5021 34.7385 48.2939 33.4044 48.246C34.7825 48.2909 36.2065 48.5034 37.658 48.8884C45.7867 51.0455 51.4865 56.665 53.7332 64.7361L53.7329 64.737C54.0299 65.8011 54.2636 66.8953 54.4347 68.0136L54.5728 68.9093L54.5617 68.9188ZM50.4151 90.5153C48.1454 95.1575 45.0596 99.532 41.297 103.403C39.3081 105.449 37.1322 107.312 34.8096 108.969C37.1066 107.323 39.2762 105.462 41.2845 103.396C45.0896 99.4809 48.1652 95.0913 50.4151 90.5153ZM46.0987 74.6089C45.9602 74.6761 45.8214 74.7414 45.683 74.806C45.8219 74.7416 45.9603 74.6756 46.0987 74.6089ZM46.8046 74.2569C46.7589 74.2804 46.7135 74.3044 46.6679 74.3277C46.7136 74.3045 46.7589 74.2803 46.8046 74.2569ZM54.7518 71.2662C54.7295 70.7987 54.698 70.3334 54.6553 69.8707L54.6 69.2703C54.6721 69.9283 54.7217 70.5938 54.7518 71.2662ZM50.7475 89.8217C50.731 89.8568 50.7138 89.8916 50.6973 89.9266C50.7139 89.8916 50.731 89.8568 50.7475 89.8217ZM54.7673 71.6487C54.7702 71.7369 54.7745 71.8253 54.7767 71.9138C54.7742 71.8253 54.7704 71.737 54.7673 71.6487ZM71.9493 44.1008C68.8686 51.5659 64.2897 58.8211 59.0623 64.5261C58.9764 64.6199 58.8889 64.7119 58.8027 64.8047C64.441 58.7043 69.0199 51.1634 71.9363 44.096C71.937 44.0944 71.9401 44.0907 71.946 44.0931C71.9469 44.0935 71.9475 44.0944 71.9477 44.0945L71.9491 44.0968C71.9495 44.0978 71.9497 44.0986 71.9497 44.0989L71.9493 44.1008Z" stroke="url(#paint0_linear_806_4362)"/>
<defs>
<linearGradient id="paint0_linear_806_4362" x1="65.8476" y1="68.0758" x2="21.2577" y2="82.8781" gradientUnits="userSpaceOnUse">
<stop stop-color="#296253"/>
<stop offset="1" stop-color="#296253" stop-opacity="0"/>
</linearGradient>
</defs>
</svg>
