<svg width="92" height="126" viewBox="0 0 92 126" fill="none" xmlns="http://www.w3.org/2000/svg">
<path d="M16.2015 27.4641L28.846 28.0444C28.9633 28.047 29.0254 27.899 28.9432 27.8111L7.51184 4.34206C7.42968 4.25425 7.28766 4.31272 7.285 4.43497L7.17434 36.8719C7.17112 37.0038 7.33054 37.0643 7.40984 36.9608L16.0947 27.5171C16.1211 27.4827 16.161 27.4626 16.2015 27.4641Z" fill="#B7DF30"/>
<path d="M29.473 27.7627C29.4493 27.6506 29.3968 27.5437 29.3184 27.4551L19.3492 15.68C19.1642 15.4619 18.8445 15.4411 18.6337 15.6343C18.4242 15.8273 18.4039 16.1604 18.5892 16.3798L27.984 27.4766L16.225 26.9364C16.221 26.936 16.2158 26.9359 16.2118 26.9355C16.0254 26.9312 15.8434 27.0151 15.7199 27.1612L7.68465 35.8981L7.78833 5.36441L12.5349 10.2074C12.735 10.4112 13.056 10.4075 13.2518 10.1987C13.4476 9.98997 13.4443 9.65555 13.2441 9.45172L7.86573 3.96527C7.69454 3.78178 7.42355 3.72134 7.18338 3.81868C6.94347 3.91731 6.7847 4.15399 6.77811 4.42312L6.66715 36.8709C6.66042 37.1455 6.82929 37.4038 7.08855 37.5008C7.33654 37.5935 7.61268 37.519 7.78474 37.3144L16.3502 27.9996L28.8207 28.5728C29.0931 28.5788 29.3285 28.4218 29.4313 28.1724C29.4902 28.0398 29.5014 27.8967 29.473 27.7627ZM7.14906 4.71052L7.16222 4.72368C7.15742 4.71938 7.15386 4.71482 7.14906 4.71052ZM7.68289 36.8824L7.6836 36.8674C7.68222 36.8731 7.68331 36.8782 7.68289 36.8824Z" fill="#377262"/>
<path d="M16.6315 27.3519C16.6258 27.3248 16.6173 27.297 16.6079 27.2708L11.9776 15.1094C11.8748 14.8385 11.5796 14.7066 11.3195 14.8139C11.0594 14.9213 10.9325 15.229 11.0353 15.4999L15.6668 27.6611C15.7696 27.932 16.0648 28.0639 16.3249 27.9565C16.5586 27.8593 16.6842 27.6006 16.6315 27.3519Z" fill="#377262"/>
<path opacity="0.15" d="M40.5314 83.7049C42.8437 89.0091 46.1284 94.008 50.2067 98.3886C55.4547 104.027 61.9969 108.337 69.1224 110.854C76.0575 113.304 83.4256 114.029 90.4304 112.955L90.4314 112.955C90.4342 112.951 90.4367 112.943 90.4353 112.931C90.435 112.929 90.4345 112.927 90.4343 112.926C90.4317 112.916 90.4269 112.909 90.422 112.906L90.4186 112.904C75.7969 115.145 60.7673 109.695 50.2041 98.3481L50.2039 98.3471C46.0824 93.9194 42.8171 88.9114 40.5314 83.7049ZM36.7094 66.5268C36.707 65.4649 36.7507 64.412 36.8427 63.3715L36.9303 62.3853L37.6678 63.0257C41.8378 66.6437 46.1361 69.1019 50.3254 70.2629C56.8903 72.0823 62.9936 70.7568 68.5109 66.3036C70.9408 64.3423 72.4933 61.5855 72.9947 58.3121C73.1553 57.2619 73.1969 56.1833 73.1302 55.1012C73.3939 59.4421 71.7926 63.5935 68.5034 66.2492C63.0046 70.688 56.8661 72.0294 50.3065 70.2112C45.6201 68.9119 41.1725 66.1584 37.1371 62.551L36.9438 62.3782L36.9765 62.1181C37.1534 60.7249 37.4192 59.3547 37.7755 58.0196C40.0156 49.62 45.7274 43.7339 53.8433 41.4859C58.4055 40.2222 62.2093 40.781 65.1965 42.3504C68.1747 43.9151 70.3083 46.4666 71.5769 49.1417C72.3966 50.8701 72.8911 52.6667 73.0755 54.4425C72.8872 52.6223 72.3876 50.8071 71.5867 49.1174C70.1286 46.0433 67.7558 43.5799 64.9158 42.1747C61.6985 40.5823 57.8717 40.3139 53.8339 41.432C45.7141 43.682 40.0119 49.5453 37.7626 57.9824L37.7617 57.9827C37.4644 59.0948 37.231 60.2386 37.0596 61.4075L36.9186 62.3629L36.9308 62.3732L36.9034 62.626C36.766 63.9005 36.7022 65.2026 36.7094 66.5268ZM73.127 55.0438C73.1158 54.8717 73.1015 54.6997 73.0846 54.5276C73.1015 54.6999 73.1159 54.872 73.127 55.0438ZM19.548 36.4597C22.6303 44.2583 27.211 51.8369 32.4405 57.7961C33.8503 59.4018 35.2892 60.8753 36.7465 62.2053L36.8071 62.2604L36.224 61.7126C28.9646 54.8886 23.0618 45.3069 19.5583 36.4423L19.5581 36.4414C19.5555 36.4349 19.5525 36.4311 19.5505 36.4291C19.5496 36.4281 19.5488 36.4272 19.548 36.4267L19.5475 36.4288C19.5443 36.4368 19.5434 36.4479 19.548 36.4597ZM40.1649 82.8416C40.2767 83.1118 40.3901 83.3817 40.5069 83.6505C40.3893 83.3818 40.2773 83.1113 40.1649 82.8416Z" stroke="url(#paint0_linear_919_3943)"/>
<defs>
<linearGradient id="paint0_linear_919_3943" x1="25.6485" y1="61.4864" x2="70.6075" y2="75.7808" gradientUnits="userSpaceOnUse">
<stop stop-color="#296253"/>
<stop offset="1" stop-color="#296253" stop-opacity="0"/>
</linearGradient>
</defs>
</svg>
