<svg width="961" height="862" viewBox="0 0 961 862" fill="none" xmlns="http://www.w3.org/2000/svg">
<g filter="url(#filter0_dd_806_4153)">
<path d="M512.215 128.166C519.802 120.477 533.4 118.85 542.587 124.533L804.411 286.481C813.598 292.163 814.895 303.003 807.307 310.693L448.829 673.969C441.241 681.658 427.643 683.285 418.456 677.602L156.634 515.654C147.447 509.972 146.15 499.132 153.738 491.442L512.215 128.166Z" fill="#D1F701"/>
<g filter="url(#filter1_i_806_4153)">
<path d="M512.417 122.024C520.005 114.334 533.604 112.708 542.791 118.39L804.613 280.338C813.8 286.021 815.097 296.861 807.509 304.55L449.032 667.826C441.445 675.516 427.846 677.142 418.659 671.46L156.836 509.512C147.649 503.829 146.353 492.989 153.94 485.3L512.417 122.024Z" fill="white"/>
<path d="M624.525 311.376L668.139 267.178C669.845 265.449 669.553 263.012 667.487 261.734L632.282 239.958C630.216 238.68 627.158 239.046 625.452 240.775L581.838 284.973C580.132 286.702 580.423 289.139 582.489 290.417L617.695 312.193C619.761 313.471 622.818 313.105 624.525 311.376Z" fill="url(#paint0_linear_806_4153)"/>
<path d="M638.626 284.513C638.024 285.123 638.127 285.983 638.856 286.434C639.585 286.885 640.664 286.756 641.267 286.146C641.869 285.536 641.766 284.675 641.037 284.224C640.308 283.773 639.228 283.903 638.626 284.513Z" fill="#D4D8DB"/>
<path d="M670.075 318.151C680.049 313.34 684.218 309.719 687.453 300.541C687.796 299.567 688.786 299.191 689.347 299.34C689.908 299.49 690.467 300.033 690.16 301.029C687.039 311.142 682.641 315.176 671.481 320.318C670.314 320.782 669.398 320.366 669.175 319.782C668.914 319.098 669.233 318.558 670.075 318.151Z" fill="#296253"/>
<path d="M682.285 298.236C681.663 298.147 680.692 298.672 680.429 299.757C678.303 306.743 675.272 309.617 667.163 313.2C666.322 313.547 665.927 314.261 666.331 314.762C666.81 315.354 667.773 315.319 668.599 314.978C677.458 311.319 680.761 308.112 683.318 300.061C683.554 299.317 683.218 298.368 682.285 298.236Z" fill="#296253"/>
<path d="M675.522 297.909C674.68 297.684 673.961 298.223 673.629 299.11C671.904 303.717 670.229 305.864 664.723 308.133C663.722 308.503 662.95 309.073 663.491 309.743C664.031 310.412 664.892 310.416 665.575 310.143C672.433 307.436 674.238 304.656 676.479 299.093C676.67 298.619 676.364 298.133 675.522 297.909Z" fill="#296253"/>
<path d="M669.448 296.524C668.425 296.484 667.78 296.984 667.411 298.229C666.61 300.859 665.508 301.933 662.504 303.201C661.154 303.745 660.027 304.635 660.725 305.363C661.424 306.092 662.073 306.072 663.576 305.347C667.368 303.339 668.986 301.878 670.482 298.349C670.906 297.456 670.692 296.7 669.448 296.524Z" fill="#296253"/>
<mask id="mask0_806_4153" style="mask-type:luminance" maskUnits="userSpaceOnUse" x="206" y="248" width="518" height="429">
<path d="M723.796 398.818L479.967 248L206 525.635L449.829 676.453L723.796 398.818Z" fill="white"/>
</mask>
<g mask="url(#mask0_806_4153)">
<path d="M415.207 401.816C423.391 393.522 438.058 391.768 447.968 397.897L570.363 473.603C580.272 479.733 581.671 491.425 573.487 499.718L560.2 513.183C559.03 514.368 556.935 514.618 555.52 513.743L417.745 428.524C407.836 422.395 406.438 410.703 414.622 402.409L415.207 401.816Z" fill="#296253"/>
<path d="M446.531 420.337C445.435 421.447 444.295 422.454 443.112 423.358C441.94 424.268 440.657 425.003 439.265 425.563C437.872 426.123 436.308 426.431 434.572 426.488C433.735 426.522 432.858 426.43 431.94 426.213C431.031 425.987 430.156 425.698 429.316 425.347C428.485 424.986 427.764 424.616 427.151 424.237C426.222 423.662 425.365 423.124 424.58 422.624C423.796 422.123 423.005 421.611 422.207 421.087C421.421 420.57 420.544 419.997 419.576 419.368L419.52 419.036L438.4 399.903L438.821 399.865C439.824 400.439 440.733 400.971 441.548 401.46C442.383 401.946 443.197 402.434 443.991 402.925C444.796 403.423 445.664 403.96 446.594 404.535C447.206 404.914 447.834 405.378 448.477 405.929C449.121 406.48 449.686 407.082 450.174 407.735C450.682 408.386 451.012 409.033 451.162 409.676C451.501 411.017 451.496 412.289 451.146 413.495C450.797 414.7 450.212 415.866 449.391 416.994C448.571 418.122 447.617 419.236 446.531 420.337ZM442.398 417.781C443.212 416.955 443.968 416.078 444.666 415.149C445.375 414.227 445.883 413.296 446.19 412.355C446.509 411.421 446.515 410.508 446.209 409.616C445.914 408.73 445.166 407.916 443.964 407.172C443.283 406.751 442.643 406.355 442.042 405.983C441.461 405.609 440.802 405.186 440.063 404.713L425.846 419.12C426.595 419.583 427.259 420.002 427.839 420.376C428.44 420.747 429.081 421.144 429.761 421.565C430.963 422.308 432.143 422.686 433.299 422.698C434.467 422.718 435.589 422.487 436.666 422.007C437.754 421.533 438.777 420.913 439.735 420.146C440.705 419.385 441.592 418.597 442.398 417.781ZM445.503 435.359C445.205 435.236 444.877 435.079 444.518 434.887C444.17 434.703 443.821 434.502 443.469 434.284C443.129 434.074 442.798 433.854 442.477 433.625C442.155 433.395 441.877 433.177 441.642 432.971L451.743 422.736C452.23 422.242 452.486 421.797 452.512 421.401C452.55 421.011 452.291 420.644 451.735 420.301L451.31 420.038C451.582 419.595 451.906 419.184 452.28 418.804C452.458 418.624 452.657 418.441 452.876 418.256C453.096 418.07 453.332 417.896 453.585 417.732C454.086 417.965 454.55 418.198 454.977 418.431C455.415 418.672 455.776 418.88 456.059 419.055L456.552 419.36C457.471 419.928 457.952 420.616 457.996 421.423C458.05 422.22 457.664 423.036 456.84 423.871L445.503 435.359ZM458.291 414.406C458.506 414.188 458.764 413.973 459.064 413.761C459.365 413.55 459.659 413.381 459.949 413.254C460.278 413.29 460.663 413.39 461.103 413.555C461.563 413.718 461.969 413.908 462.321 414.125C462.673 414.343 463.009 414.612 463.331 414.934C463.663 415.245 463.873 415.513 463.963 415.737C463.878 415.99 463.737 416.262 463.541 416.553C463.354 416.835 463.158 417.08 462.951 417.289C462.745 417.498 462.488 417.713 462.178 417.934C461.878 418.146 461.588 418.31 461.308 418.427C461.023 418.42 460.64 418.327 460.156 418.151C459.694 417.972 459.287 417.774 458.935 417.556C458.584 417.339 458.243 417.074 457.911 416.762C457.591 416.457 457.385 416.185 457.294 415.945C457.37 415.701 457.501 415.438 457.688 415.157C457.884 414.865 458.085 414.615 458.291 414.406ZM476.925 434.46C476.329 434.489 475.729 434.691 475.123 435.065C474.528 435.446 473.963 435.907 473.429 436.448L465.296 444.69C464.172 445.829 463.168 446.744 462.285 447.436C461.392 448.137 460.564 448.671 459.799 449.039C459.046 449.414 458.301 449.679 457.563 449.834C456.417 450.088 455.177 450.077 453.842 449.802C452.507 449.526 451.193 448.989 449.901 448.189C448.857 447.544 447.891 446.793 447.001 445.937C446.101 445.09 445.386 444.289 444.855 443.532C445.248 443.133 445.769 442.753 446.419 442.391C447.071 442.045 447.675 441.83 448.232 441.747C448.675 442.464 449.241 443.158 449.93 443.829C450.61 444.509 451.29 445.06 451.971 445.481C453.059 446.154 454.057 446.503 454.963 446.529C455.88 446.561 456.728 446.36 457.505 445.923C458.282 445.487 459.017 444.918 459.71 444.216L470.064 433.724C471.01 432.765 472.098 432.079 473.33 431.663C474.572 431.255 475.859 431.348 477.19 431.942C477.335 432.277 477.38 432.694 477.324 433.194C477.28 433.702 477.147 434.124 476.925 434.46ZM456.337 430.758C457.994 429.078 459.679 427.889 461.391 427.19C463.112 426.482 464.739 426.166 466.271 426.243C467.812 426.309 469.138 426.686 470.249 427.374C471.258 427.998 472 428.671 472.475 429.393C472.959 430.105 473.27 430.817 473.408 431.528C473.546 432.24 473.594 432.904 473.552 433.52L470.31 435.917C470.524 434.719 470.449 433.611 470.086 432.591C469.732 431.562 469.158 430.802 468.364 430.311C467.718 429.912 466.973 429.741 466.129 429.8C465.286 429.859 464.367 430.17 463.374 430.732C462.39 431.285 461.35 432.117 460.255 433.227C458.663 434.841 457.783 436.177 457.615 437.234C457.469 438.29 457.786 439.06 458.569 439.544C459.442 440.084 460.51 440.362 461.772 440.378C463.034 440.395 464.276 440.162 465.5 439.681L463.69 442.459C462.923 442.718 462.035 442.887 461.026 442.966C460.037 443.043 459.023 442.988 457.982 442.803C456.941 442.618 455.985 442.255 455.111 441.715C453.785 440.894 452.979 439.907 452.694 438.752C452.418 437.588 452.597 436.324 453.232 434.959C453.878 433.601 454.913 432.201 456.337 430.758ZM472.811 452.25C472.513 452.127 472.184 451.97 471.825 451.778C471.478 451.594 471.128 451.393 470.777 451.175C470.437 450.965 470.106 450.745 469.784 450.516C469.463 450.286 469.185 450.068 468.95 449.862L479.05 439.626C479.537 439.133 479.794 438.688 479.82 438.291C479.857 437.902 479.598 437.535 479.043 437.192L478.617 436.929C478.89 436.486 479.214 436.075 479.588 435.695C479.766 435.515 479.965 435.332 480.184 435.147C480.403 434.961 480.64 434.787 480.893 434.622C481.394 434.856 481.857 435.089 482.284 435.322C482.722 435.563 483.083 435.771 483.367 435.946L483.86 436.251C484.779 436.819 485.26 437.507 485.304 438.313C485.357 439.111 484.972 439.927 484.148 440.762L472.811 452.25ZM485.599 431.297C485.814 431.079 486.072 430.864 486.372 430.652C486.672 430.441 486.967 430.272 487.256 430.145C487.586 430.181 487.971 430.281 488.411 430.446C488.871 430.609 489.277 430.799 489.629 431.016C489.98 431.234 490.317 431.503 490.639 431.824C490.97 432.136 491.181 432.404 491.271 432.628C491.185 432.881 491.045 433.153 490.848 433.444C490.662 433.726 490.465 433.971 490.259 434.18C490.053 434.389 489.795 434.604 489.486 434.825C489.186 435.037 488.895 435.201 488.615 435.318C488.331 435.311 487.947 435.218 487.464 435.042C487.002 434.863 486.595 434.664 486.243 434.447C485.892 434.23 485.55 433.965 485.219 433.653C484.899 433.348 484.693 433.076 484.601 432.835C484.677 432.592 484.809 432.329 484.995 432.048C485.192 431.756 485.393 431.506 485.599 431.297ZM514.03 456.563C512.634 457.977 511.123 458.953 509.497 459.491C507.892 460.026 506.255 460.167 504.586 459.915C502.918 459.662 501.313 459.059 499.771 458.105L494.685 454.96L497.186 452.426C497.567 452.631 498.091 452.933 498.759 453.33C499.437 453.734 500.098 454.128 500.743 454.511C501.398 454.902 501.874 455.188 502.168 455.37C503.257 456.044 504.286 456.352 505.256 456.294C506.237 456.244 507.12 455.987 507.905 455.525C508.701 455.07 509.37 454.567 509.913 454.017C510.457 453.466 510.906 452.835 511.262 452.123C511.638 451.408 511.734 450.673 511.549 449.916C511.385 449.158 510.759 448.442 509.67 447.768C509.228 447.495 508.717 447.179 508.139 446.821C507.57 446.454 507.018 446.098 506.483 445.751L489.738 462.721C489.385 462.579 489.017 462.397 488.634 462.175C488.252 461.969 487.908 461.772 487.602 461.582C487.341 461.421 487.027 461.212 486.661 460.954C486.296 460.713 485.989 460.478 485.741 460.248L504.776 440.959L505.197 440.921C506.52 441.708 507.763 442.447 508.927 443.136C510.102 443.833 511.274 444.542 512.442 445.265C513.973 446.212 515.104 447.286 515.836 448.487C516.568 449.689 516.801 450.979 516.535 452.359C516.279 453.728 515.444 455.13 514.03 456.563ZM506.642 467.009C507.728 465.908 508.907 465.185 510.178 464.841C511.461 464.503 512.759 464.473 514.074 464.752C515.409 465.027 516.683 465.54 517.896 466.291C518.509 466.669 519.188 467.128 519.935 467.666C520.691 468.195 521.349 468.732 521.908 469.276L519.786 471.426C519.32 470.954 518.727 470.473 518.007 469.981C517.296 469.48 516.634 469.041 516.022 468.662C515.047 468.059 514.088 467.809 513.145 467.914C512.211 468.009 511.388 468.417 510.677 469.138C510.143 469.679 509.88 470.25 509.889 470.852C509.898 471.453 510.249 471.968 510.94 472.396C511.734 472.887 512.797 473.17 514.129 473.245C515.472 473.327 516.885 473.108 518.366 472.587L516.626 475.294C515.815 475.45 514.884 475.569 513.833 475.653C512.803 475.735 511.744 475.69 510.652 475.519C509.57 475.339 508.53 474.94 507.532 474.323C506.398 473.621 505.663 472.831 505.327 471.95C504.991 471.069 504.959 470.194 505.233 469.325C505.507 468.455 505.977 467.683 506.642 467.009ZM518.734 478.294C518.364 478.539 517.879 478.744 517.279 478.907C516.691 479.078 516.169 479.153 515.715 479.132C515.038 478.56 514.618 477.957 514.458 477.324C514.298 476.69 514.33 476.067 514.551 475.455C514.781 474.833 515.111 474.257 515.541 473.729L521.82 467.365C522.634 466.54 522.993 465.798 522.893 465.14C522.814 464.48 522.344 463.884 521.482 463.351C520.654 462.839 519.69 462.41 518.588 462.065C517.486 461.719 516.346 461.404 515.167 461.118C515.125 460.679 515.228 460.177 515.475 459.612C515.722 459.047 516.041 458.548 516.43 458.117C517.322 458.286 518.275 458.532 519.291 458.854C520.315 459.167 521.314 459.533 522.288 459.952C523.274 460.378 524.147 460.826 524.906 461.296C525.995 461.97 526.795 462.732 527.306 463.583C527.829 464.441 527.983 465.377 527.768 466.39C527.563 467.394 526.912 468.451 525.816 469.562L520.057 475.399C519.56 475.902 519.188 476.39 518.94 476.863C518.692 477.336 518.624 477.813 518.734 478.294ZM547.552 478.146C546.957 478.176 546.357 478.377 545.75 478.751C545.155 479.132 544.591 479.593 544.057 480.134L535.924 488.376C534.8 489.515 533.796 490.431 532.913 491.122C532.02 491.823 531.192 492.358 530.427 492.725C529.674 493.1 528.928 493.365 528.191 493.52C527.045 493.774 525.805 493.764 524.47 493.488C523.135 493.212 521.821 492.675 520.528 491.875C519.485 491.23 518.519 490.479 517.629 489.623C516.729 488.777 516.014 487.975 515.482 487.218C515.876 486.82 516.397 486.439 517.047 486.077C517.699 485.731 518.302 485.516 518.859 485.433C519.302 486.15 519.869 486.844 520.558 487.515C521.238 488.195 521.918 488.746 522.599 489.167C523.687 489.84 524.684 490.19 525.591 490.215C526.508 490.248 527.355 490.046 528.133 489.61C528.91 489.174 529.645 488.604 530.338 487.902L540.692 477.41C541.637 476.452 542.726 475.765 543.957 475.35C545.2 474.942 546.487 475.034 547.818 475.629C547.963 475.963 548.008 476.38 547.952 476.881C547.908 477.388 547.775 477.81 547.552 478.146ZM526.964 474.444C528.621 472.765 530.307 471.575 532.019 470.877C533.74 470.169 535.367 469.853 536.898 469.929C538.439 469.996 539.766 470.373 540.877 471.06C541.886 471.684 542.628 472.357 543.103 473.079C543.587 473.791 543.898 474.503 544.036 475.215C544.173 475.926 544.221 476.59 544.18 477.206L540.938 479.603C541.151 478.406 541.076 477.297 540.714 476.278C540.358 475.249 539.786 474.489 538.992 473.998C538.345 473.598 537.601 473.427 536.757 473.486C535.914 473.545 534.995 473.856 534.002 474.419C533.018 474.972 531.978 475.803 530.882 476.914C529.29 478.527 528.411 479.863 528.243 480.921C528.096 481.976 528.414 482.746 529.197 483.23C530.07 483.77 531.136 484.048 532.398 484.065C533.66 484.081 534.904 483.849 536.128 483.368L534.318 486.145C533.551 486.404 532.663 486.573 531.654 486.652C530.665 486.729 529.65 486.674 528.609 486.489C527.568 486.304 526.612 485.941 525.739 485.401C524.413 484.581 523.607 483.593 523.322 482.439C523.046 481.275 523.224 480.01 523.859 478.645C524.506 477.287 525.541 475.887 526.964 474.444ZM541.79 488.749C542.876 487.649 544.054 486.926 545.326 486.581C546.608 486.244 547.906 486.214 549.221 486.492C550.557 486.767 551.831 487.28 553.044 488.031C553.656 488.41 554.336 488.868 555.083 489.407C555.839 489.936 556.497 490.472 557.055 491.016L554.934 493.166C554.468 492.694 553.875 492.213 553.155 491.722C552.444 491.221 551.782 490.781 551.17 490.402C550.195 489.799 549.236 489.55 548.293 489.654C547.359 489.749 546.536 490.157 545.824 490.878C545.291 491.419 545.027 491.991 545.036 492.592C545.046 493.194 545.396 493.708 546.088 494.136C546.882 494.627 547.945 494.91 549.277 494.985C550.62 495.067 552.032 494.848 553.514 494.328L551.773 497.034C550.962 497.19 550.033 497.31 548.982 497.394C547.952 497.475 546.892 497.43 545.799 497.259C544.717 497.079 543.678 496.68 542.68 496.063C541.546 495.362 540.811 494.571 540.475 493.69C540.138 492.81 540.107 491.935 540.381 491.065C540.655 490.195 541.125 489.423 541.79 488.749ZM553.881 500.034C553.512 500.279 553.027 500.484 552.427 500.648C551.838 500.819 551.317 500.893 550.863 500.872C550.186 500.301 549.767 499.698 549.607 499.064C549.447 498.43 549.478 497.807 549.699 497.195C549.929 496.573 550.259 495.998 550.689 495.469L556.969 489.106C557.783 488.28 558.141 487.538 558.041 486.881C557.962 486.221 557.492 485.624 556.63 485.091C555.802 484.579 554.837 484.15 553.736 483.805C552.634 483.46 551.493 483.144 550.315 482.858C550.273 482.42 550.374 481.918 550.622 481.352C550.869 480.787 551.189 480.289 551.578 479.857C552.47 480.026 553.423 480.272 554.438 480.595C555.462 480.907 556.462 481.273 557.436 481.692C558.422 482.119 559.294 482.567 560.054 483.037C561.143 483.71 561.943 484.472 562.454 485.323C562.977 486.182 563.131 487.117 562.916 488.131C562.71 489.135 562.059 490.192 560.964 491.302L555.205 497.139C554.708 497.642 554.336 498.13 554.088 498.603C553.84 499.077 553.771 499.554 553.881 500.034Z" fill="white"/>
<path d="M475.226 487.278L472.42 485.419L478.443 476.324L481.374 478.265C482.257 478.85 482.891 479.532 483.278 480.312C483.666 481.089 483.803 481.927 483.688 482.826C483.576 483.723 483.208 484.642 482.584 485.584C481.957 486.531 481.248 487.235 480.457 487.695C479.669 488.153 478.83 488.351 477.942 488.291C477.055 488.228 476.15 487.89 475.226 487.278ZM474.168 485.172L475.802 486.254C476.554 486.752 477.274 487.02 477.96 487.057C478.647 487.095 479.289 486.926 479.887 486.551C480.484 486.175 481.028 485.618 481.519 484.878C482.005 484.143 482.304 483.432 482.415 482.743C482.528 482.051 482.44 481.406 482.152 480.806C481.865 480.203 481.367 479.666 480.656 479.195L478.898 478.031L474.168 485.172ZM484.282 493.48C483.625 493.045 483.154 492.524 482.869 491.919C482.59 491.312 482.495 490.661 482.584 489.966C482.679 489.271 482.957 488.574 483.42 487.875C483.883 487.176 484.418 486.645 485.026 486.28C485.638 485.915 486.273 485.735 486.93 485.74C487.592 485.744 488.23 485.95 488.846 486.357C489.202 486.593 489.513 486.884 489.781 487.232C490.049 487.58 490.237 487.981 490.345 488.436C490.454 488.888 490.45 489.387 490.33 489.934C490.211 490.481 489.94 491.073 489.518 491.709L489.224 492.153L483.966 488.671L484.566 487.765L488.758 490.542C489.013 490.157 489.164 489.762 489.21 489.358C489.259 488.956 489.201 488.575 489.035 488.214C488.872 487.855 488.602 487.55 488.223 487.299C487.805 487.022 487.375 486.887 486.933 486.892C486.496 486.896 486.087 487.009 485.707 487.23C485.326 487.45 485.011 487.749 484.762 488.125L484.362 488.729C484.021 489.244 483.821 489.74 483.761 490.215C483.706 490.69 483.777 491.127 483.973 491.525C484.172 491.921 484.482 492.258 484.906 492.539C485.181 492.721 485.455 492.847 485.728 492.918C486.006 492.987 486.279 492.997 486.545 492.948C486.814 492.895 487.071 492.78 487.317 492.602L488.141 493.557C487.807 493.83 487.428 494.013 487.004 494.107C486.582 494.198 486.137 494.194 485.671 494.094C485.207 493.991 484.744 493.786 484.282 493.48ZM489.187 496.525L495.211 487.429L496.259 488.123L494.035 491.481L494.124 491.54C494.28 491.472 494.486 491.392 494.744 491.299C495.007 491.204 495.315 491.17 495.669 491.195C496.027 491.22 496.429 491.379 496.873 491.673C497.447 492.054 497.858 492.533 498.106 493.11C498.354 493.687 498.426 494.321 498.323 495.011C498.22 495.7 497.931 496.404 497.456 497.12C496.978 497.842 496.44 498.387 495.844 498.754C495.249 499.119 494.638 499.302 494.01 499.304C493.385 499.303 492.788 499.114 492.22 498.737C491.781 498.447 491.479 498.142 491.311 497.823C491.146 497.5 491.054 497.198 491.035 496.918C491.019 496.634 491.013 496.405 491.018 496.229L490.894 496.147L490.2 497.195L489.187 496.525ZM492.476 493.796C492.135 494.311 491.91 494.816 491.8 495.31C491.692 495.8 491.71 496.253 491.853 496.667C491.998 497.078 492.281 497.423 492.701 497.702C493.139 497.992 493.581 498.119 494.027 498.082C494.478 498.044 494.908 497.877 495.317 497.582C495.731 497.285 496.099 496.894 496.42 496.408C496.738 495.928 496.95 495.447 497.057 494.964C497.169 494.48 497.151 494.028 497.004 493.607C496.862 493.185 496.569 492.826 496.125 492.532C495.698 492.25 495.269 492.121 494.835 492.145C494.404 492.166 493.987 492.32 493.584 492.607C493.183 492.89 492.814 493.287 492.476 493.796ZM497.063 501.74L501.58 494.919L502.629 495.613L498.111 502.435L497.063 501.74ZM502.866 494.135C502.662 494 502.532 493.813 502.476 493.576C502.423 493.341 502.461 493.126 502.591 492.93C502.72 492.735 502.904 492.616 503.141 492.573C503.381 492.532 503.603 492.579 503.808 492.714C504.012 492.849 504.14 493.034 504.193 493.27C504.249 493.507 504.212 493.723 504.083 493.919C503.954 494.114 503.769 494.232 503.529 494.273C503.291 494.316 503.071 494.27 502.866 494.135ZM507.765 499.015L507.177 499.903L503.642 497.562L504.23 496.674L507.765 499.015ZM506.343 495.722L507.391 496.416L503.085 502.918C502.888 503.214 502.784 503.464 502.772 503.669C502.765 503.873 502.813 504.045 502.916 504.186C503.023 504.325 503.154 504.446 503.308 504.548C503.424 504.624 503.522 504.681 503.604 504.718C503.688 504.753 503.755 504.78 503.805 504.8L503.395 505.883C503.306 505.863 503.189 505.824 503.044 505.766C502.898 505.711 502.726 505.619 502.531 505.49C502.235 505.294 501.987 505.038 501.787 504.722C501.59 504.409 501.485 504.06 501.471 503.676C501.46 503.294 501.585 502.904 501.848 502.508L506.343 495.722ZM520.443 508.23L519.342 507.5C519.487 507.14 519.557 506.786 519.553 506.439C519.552 506.093 519.49 505.762 519.367 505.447C519.249 505.13 519.078 504.838 518.854 504.571C518.631 504.303 518.368 504.07 518.066 503.87C517.516 503.505 516.925 503.314 516.293 503.296C515.665 503.28 515.039 503.456 514.417 503.823C513.798 504.192 513.227 504.771 512.706 505.558C512.184 506.346 511.874 507.097 511.776 507.811C511.681 508.528 511.763 509.172 512.023 509.744C512.285 510.319 512.692 510.788 513.243 511.153C513.545 511.353 513.862 511.504 514.195 511.605C514.529 511.707 514.863 511.751 515.199 511.74C515.54 511.727 515.869 511.653 516.188 511.519C516.512 511.384 516.81 511.182 517.083 510.911L518.184 511.64C517.794 512.05 517.367 512.366 516.905 512.588C516.443 512.81 515.964 512.942 515.467 512.984C514.973 513.023 514.479 512.975 513.985 512.839C513.494 512.706 513.019 512.487 512.56 512.183C511.785 511.67 511.22 511.023 510.867 510.244C510.514 509.465 510.396 508.612 510.512 507.684C510.629 506.755 511.005 505.812 511.64 504.852C512.275 503.893 512.997 503.179 513.807 502.71C514.616 502.24 515.448 502.016 516.303 502.037C517.158 502.058 517.973 502.326 518.749 502.839C519.208 503.143 519.594 503.495 519.909 503.895C520.226 504.297 520.462 504.735 520.617 505.208C520.774 505.678 520.841 506.169 520.817 506.682C520.795 507.191 520.67 507.707 520.443 508.23ZM520.091 517.222C519.659 516.936 519.321 516.595 519.076 516.198C518.834 515.799 518.712 515.376 518.71 514.928C518.711 514.476 518.858 514.029 519.152 513.585C519.411 513.194 519.698 512.928 520.013 512.787C520.33 512.644 520.663 512.587 521.012 512.619C521.362 512.65 521.715 512.735 522.071 512.873C522.432 513.01 522.785 513.162 523.129 513.33C523.579 513.552 523.941 513.734 524.216 513.878C524.496 514.021 524.718 514.098 524.882 514.108C525.048 514.12 525.187 514.042 525.299 513.873L525.323 513.838C525.613 513.4 525.719 512.98 525.639 512.578C525.563 512.179 525.284 511.819 524.802 511.499C524.301 511.168 523.836 511.018 523.407 511.049C522.978 511.079 522.623 511.181 522.343 511.353L521.583 510.339C522.035 510.042 522.486 509.876 522.935 509.841C523.389 509.806 523.822 509.858 524.236 510C524.654 510.141 525.034 510.325 525.378 510.552C525.597 510.697 525.831 510.891 526.08 511.132C526.334 511.373 526.541 511.661 526.701 511.997C526.865 512.336 526.929 512.725 526.893 513.165C526.857 513.606 526.659 514.097 526.3 514.639L523.324 519.133L522.276 518.439L522.887 517.515L522.834 517.48C522.665 517.581 522.442 517.661 522.164 517.72C521.886 517.779 521.571 517.776 521.217 517.712C520.863 517.648 520.488 517.485 520.091 517.222ZM520.875 516.387C521.289 516.661 521.692 516.811 522.085 516.836C522.48 516.864 522.835 516.797 523.151 516.635C523.469 516.476 523.723 516.254 523.911 515.97L524.546 515.01C524.467 515.034 524.336 515.018 524.156 514.963C523.981 514.906 523.784 514.829 523.567 514.733C523.355 514.635 523.15 514.537 522.95 514.439C522.756 514.34 522.598 514.261 522.475 514.201C522.18 514.056 521.887 513.945 521.597 513.868C521.312 513.79 521.045 513.782 520.796 513.843C520.552 513.903 520.342 514.066 520.165 514.332C519.924 514.696 519.876 515.061 520.022 515.426C520.173 515.79 520.457 516.11 520.875 516.387ZM525.487 520.566L530.005 513.744L531.017 514.415L530.335 515.445L530.406 515.492C530.754 515.237 531.16 515.112 531.625 515.118C532.09 515.123 532.527 515.261 532.935 515.532C533.012 515.583 533.107 515.648 533.221 515.727C533.334 515.807 533.419 515.869 533.474 515.914L532.768 516.98C532.739 516.948 532.666 516.88 532.55 516.778C532.44 516.675 532.315 516.578 532.176 516.485C531.844 516.266 531.502 516.139 531.149 516.106C530.801 516.072 530.472 516.126 530.16 516.269C529.853 516.41 529.598 516.635 529.394 516.943L526.535 521.26L525.487 520.566ZM532.664 525.523C532.096 525.147 531.689 524.671 531.444 524.096C531.201 523.517 531.131 522.883 531.234 522.193C531.339 521.501 531.631 520.793 532.11 520.071C532.584 519.354 533.119 518.814 533.714 518.45C534.308 518.085 534.92 517.905 535.548 517.908C536.177 517.911 536.778 518.103 537.352 518.483C537.797 518.777 538.098 519.083 538.258 519.402C538.422 519.72 538.511 520.017 538.524 520.294C538.541 520.569 538.549 520.792 538.548 520.961L538.637 521.02L540.86 517.663L541.908 518.357L535.885 527.452L534.872 526.781L535.566 525.733L535.442 525.651C535.282 525.724 535.069 525.809 534.801 525.904C534.536 525.996 534.222 526.029 533.861 526.003C533.501 525.974 533.102 525.814 532.664 525.523ZM533.43 524.676C533.85 524.955 534.278 525.08 534.713 525.053C535.15 525.023 535.574 524.863 535.984 524.572C536.395 524.279 536.772 523.874 537.113 523.359C537.45 522.85 537.672 522.355 537.776 521.875C537.883 521.392 537.862 520.948 537.713 520.543C537.566 520.134 537.28 519.789 536.853 519.507C536.409 519.213 535.964 519.082 535.517 519.113C535.074 519.144 534.651 519.305 534.246 519.594C533.846 519.883 533.487 520.267 533.17 520.747C532.848 521.233 532.63 521.723 532.515 522.218C532.405 522.711 532.419 523.172 532.558 523.6C532.701 524.027 532.991 524.386 533.43 524.676Z" fill="#A6A7A7"/>
<path d="M475.226 487.278L472.42 485.419L478.443 476.324L481.374 478.265C482.257 478.85 482.891 479.532 483.278 480.312C483.666 481.089 483.803 481.927 483.688 482.826C483.576 483.723 483.208 484.642 482.584 485.584C481.957 486.531 481.248 487.235 480.457 487.695C479.669 488.153 478.83 488.351 477.942 488.291C477.055 488.228 476.15 487.89 475.226 487.278ZM474.168 485.172L475.802 486.254C476.554 486.752 477.274 487.02 477.96 487.057C478.647 487.095 479.289 486.926 479.887 486.551C480.484 486.175 481.028 485.618 481.519 484.878C482.005 484.143 482.304 483.432 482.415 482.743C482.528 482.051 482.44 481.406 482.152 480.806C481.865 480.203 481.367 479.666 480.656 479.195L478.898 478.031L474.168 485.172ZM484.282 493.48C483.625 493.045 483.154 492.524 482.869 491.919C482.59 491.312 482.495 490.661 482.584 489.966C482.679 489.271 482.957 488.574 483.42 487.875C483.883 487.176 484.418 486.645 485.026 486.28C485.638 485.915 486.273 485.735 486.93 485.74C487.592 485.744 488.23 485.95 488.846 486.357C489.202 486.593 489.513 486.884 489.781 487.232C490.049 487.58 490.237 487.981 490.345 488.436C490.454 488.888 490.45 489.387 490.33 489.934C490.211 490.481 489.94 491.073 489.518 491.709L489.224 492.153L483.966 488.671L484.566 487.765L488.758 490.542C489.013 490.157 489.164 489.762 489.21 489.358C489.259 488.956 489.201 488.575 489.035 488.214C488.872 487.855 488.602 487.55 488.223 487.299C487.805 487.022 487.375 486.887 486.933 486.892C486.496 486.896 486.087 487.009 485.707 487.23C485.326 487.45 485.011 487.749 484.762 488.125L484.362 488.729C484.021 489.244 483.821 489.74 483.761 490.215C483.706 490.69 483.777 491.127 483.973 491.525C484.172 491.921 484.482 492.258 484.906 492.539C485.181 492.721 485.455 492.847 485.728 492.918C486.006 492.987 486.279 492.997 486.545 492.948C486.814 492.895 487.071 492.78 487.317 492.602L488.141 493.557C487.807 493.83 487.428 494.013 487.004 494.107C486.582 494.198 486.137 494.194 485.671 494.094C485.207 493.991 484.744 493.786 484.282 493.48ZM489.187 496.525L495.211 487.429L496.259 488.123L494.035 491.481L494.124 491.54C494.28 491.472 494.486 491.392 494.744 491.299C495.007 491.204 495.315 491.17 495.669 491.195C496.027 491.22 496.429 491.379 496.873 491.673C497.447 492.054 497.858 492.533 498.106 493.11C498.354 493.687 498.426 494.321 498.323 495.011C498.22 495.7 497.931 496.404 497.456 497.12C496.978 497.842 496.44 498.387 495.844 498.754C495.249 499.119 494.638 499.302 494.01 499.304C493.385 499.303 492.788 499.114 492.22 498.737C491.781 498.447 491.479 498.142 491.311 497.823C491.146 497.5 491.054 497.198 491.035 496.918C491.019 496.634 491.013 496.405 491.018 496.229L490.894 496.147L490.2 497.195L489.187 496.525ZM492.476 493.796C492.135 494.311 491.91 494.816 491.8 495.31C491.692 495.8 491.71 496.253 491.853 496.667C491.998 497.078 492.281 497.423 492.701 497.702C493.139 497.992 493.581 498.119 494.027 498.082C494.478 498.044 494.908 497.877 495.317 497.582C495.731 497.285 496.099 496.894 496.42 496.408C496.738 495.928 496.95 495.447 497.057 494.964C497.169 494.48 497.151 494.028 497.004 493.607C496.862 493.185 496.569 492.826 496.125 492.532C495.698 492.25 495.269 492.121 494.835 492.145C494.404 492.166 493.987 492.32 493.584 492.607C493.183 492.89 492.814 493.287 492.476 493.796ZM497.063 501.74L501.58 494.919L502.629 495.613L498.111 502.435L497.063 501.74ZM502.866 494.135C502.662 494 502.532 493.813 502.476 493.576C502.423 493.341 502.461 493.126 502.591 492.93C502.72 492.735 502.904 492.616 503.141 492.573C503.381 492.532 503.603 492.579 503.808 492.714C504.012 492.849 504.14 493.034 504.193 493.27C504.249 493.507 504.212 493.723 504.083 493.919C503.954 494.114 503.769 494.232 503.529 494.273C503.291 494.316 503.071 494.27 502.866 494.135ZM507.765 499.015L507.177 499.903L503.642 497.562L504.23 496.674L507.765 499.015ZM506.343 495.722L507.391 496.416L503.085 502.918C502.888 503.214 502.784 503.464 502.772 503.669C502.765 503.873 502.813 504.045 502.916 504.186C503.023 504.325 503.154 504.446 503.308 504.548C503.424 504.624 503.522 504.681 503.604 504.718C503.688 504.753 503.755 504.78 503.805 504.8L503.395 505.883C503.306 505.863 503.189 505.824 503.044 505.766C502.898 505.711 502.726 505.619 502.531 505.49C502.235 505.294 501.987 505.038 501.787 504.722C501.59 504.409 501.485 504.06 501.471 503.676C501.46 503.294 501.585 502.904 501.848 502.508L506.343 495.722ZM520.443 508.23L519.342 507.5C519.487 507.14 519.557 506.786 519.553 506.439C519.552 506.093 519.49 505.762 519.367 505.447C519.249 505.13 519.078 504.838 518.854 504.571C518.631 504.303 518.368 504.07 518.066 503.87C517.516 503.505 516.925 503.314 516.293 503.296C515.665 503.28 515.039 503.456 514.417 503.823C513.798 504.192 513.227 504.771 512.706 505.558C512.184 506.346 511.874 507.097 511.776 507.811C511.681 508.528 511.763 509.172 512.023 509.744C512.285 510.319 512.692 510.788 513.243 511.153C513.545 511.353 513.862 511.504 514.195 511.605C514.529 511.707 514.863 511.751 515.199 511.74C515.54 511.727 515.869 511.653 516.188 511.519C516.512 511.384 516.81 511.182 517.083 510.911L518.184 511.64C517.794 512.05 517.367 512.366 516.905 512.588C516.443 512.81 515.964 512.942 515.467 512.984C514.973 513.023 514.479 512.975 513.985 512.839C513.494 512.706 513.019 512.487 512.56 512.183C511.785 511.67 511.22 511.023 510.867 510.244C510.514 509.465 510.396 508.612 510.512 507.684C510.629 506.755 511.005 505.812 511.64 504.852C512.275 503.893 512.997 503.179 513.807 502.71C514.616 502.24 515.448 502.016 516.303 502.037C517.158 502.058 517.973 502.326 518.749 502.839C519.208 503.143 519.594 503.495 519.909 503.895C520.226 504.297 520.462 504.735 520.617 505.208C520.774 505.678 520.841 506.169 520.817 506.682C520.795 507.191 520.67 507.707 520.443 508.23ZM520.091 517.222C519.659 516.936 519.321 516.595 519.076 516.198C518.834 515.799 518.712 515.376 518.71 514.928C518.711 514.476 518.858 514.029 519.152 513.585C519.411 513.194 519.698 512.928 520.013 512.787C520.33 512.644 520.663 512.587 521.012 512.619C521.362 512.65 521.715 512.735 522.071 512.873C522.432 513.01 522.785 513.162 523.129 513.33C523.579 513.552 523.941 513.734 524.216 513.878C524.496 514.021 524.718 514.098 524.882 514.108C525.048 514.12 525.187 514.042 525.299 513.873L525.323 513.838C525.613 513.4 525.719 512.98 525.639 512.578C525.563 512.179 525.284 511.819 524.802 511.499C524.301 511.168 523.836 511.018 523.407 511.049C522.978 511.079 522.623 511.181 522.343 511.353L521.583 510.339C522.035 510.042 522.486 509.876 522.935 509.841C523.389 509.806 523.822 509.858 524.236 510C524.654 510.141 525.034 510.325 525.378 510.552C525.597 510.697 525.831 510.891 526.08 511.132C526.334 511.373 526.541 511.661 526.701 511.997C526.865 512.336 526.929 512.725 526.893 513.165C526.857 513.606 526.659 514.097 526.3 514.639L523.324 519.133L522.276 518.439L522.887 517.515L522.834 517.48C522.665 517.581 522.442 517.661 522.164 517.72C521.886 517.779 521.571 517.776 521.217 517.712C520.863 517.648 520.488 517.485 520.091 517.222ZM520.875 516.387C521.289 516.661 521.692 516.811 522.085 516.836C522.48 516.864 522.835 516.797 523.151 516.635C523.469 516.476 523.723 516.254 523.911 515.97L524.546 515.01C524.467 515.034 524.336 515.018 524.156 514.963C523.981 514.906 523.784 514.829 523.567 514.733C523.355 514.635 523.15 514.537 522.95 514.439C522.756 514.34 522.598 514.261 522.475 514.201C522.18 514.056 521.887 513.945 521.597 513.868C521.312 513.79 521.045 513.782 520.796 513.843C520.552 513.903 520.342 514.066 520.165 514.332C519.924 514.696 519.876 515.061 520.022 515.426C520.173 515.79 520.457 516.11 520.875 516.387ZM525.487 520.566L530.005 513.744L531.017 514.415L530.335 515.445L530.406 515.492C530.754 515.237 531.16 515.112 531.625 515.118C532.09 515.123 532.527 515.261 532.935 515.532C533.012 515.583 533.107 515.648 533.221 515.727C533.334 515.807 533.419 515.869 533.474 515.914L532.768 516.98C532.739 516.948 532.666 516.88 532.55 516.778C532.44 516.675 532.315 516.578 532.176 516.485C531.844 516.266 531.502 516.139 531.149 516.106C530.801 516.072 530.472 516.126 530.16 516.269C529.853 516.41 529.598 516.635 529.394 516.943L526.535 521.26L525.487 520.566ZM532.664 525.523C532.096 525.147 531.689 524.671 531.444 524.096C531.201 523.517 531.131 522.883 531.234 522.193C531.339 521.501 531.631 520.793 532.11 520.071C532.584 519.354 533.119 518.814 533.714 518.45C534.308 518.085 534.92 517.905 535.548 517.908C536.177 517.911 536.778 518.103 537.352 518.483C537.797 518.777 538.098 519.083 538.258 519.402C538.422 519.72 538.511 520.017 538.524 520.294C538.541 520.569 538.549 520.792 538.548 520.961L538.637 521.02L540.86 517.663L541.908 518.357L535.885 527.452L534.872 526.781L535.566 525.733L535.442 525.651C535.282 525.724 535.069 525.809 534.801 525.904C534.536 525.996 534.222 526.029 533.861 526.003C533.501 525.974 533.102 525.814 532.664 525.523ZM533.43 524.676C533.85 524.955 534.278 525.08 534.713 525.053C535.15 525.023 535.574 524.863 535.984 524.572C536.395 524.279 536.772 523.874 537.113 523.359C537.45 522.85 537.672 522.355 537.776 521.875C537.883 521.392 537.862 520.948 537.713 520.543C537.566 520.134 537.28 519.789 536.853 519.507C536.409 519.213 535.964 519.082 535.517 519.113C535.074 519.144 534.651 519.305 534.246 519.594C533.846 519.883 533.487 520.267 533.17 520.747C532.848 521.233 532.63 521.723 532.515 522.218C532.405 522.711 532.419 523.172 532.558 523.6C532.701 524.027 532.991 524.386 533.43 524.676Z" fill="#A6A7A7"/>
</g>
</g>
<path d="M228.234 471.193L224.62 468.755L243.808 454.502L247.988 457.322L241.97 480.457L238.356 478.02L243.385 459.794L243.239 459.696L228.234 471.193ZM233.296 463.944L243.153 470.592L241.318 473.312L231.462 466.664L233.296 463.944ZM262.307 466.103L249.293 485.397L245.882 483.096L258.896 463.802L262.307 466.103ZM254.392 488.836L264.152 474.365L267.562 476.666L257.802 491.136L254.392 488.836ZM267.252 473.468C266.712 473.104 266.368 472.611 266.22 471.991C266.076 471.364 266.176 470.796 266.519 470.287C266.866 469.772 267.355 469.467 267.986 469.372C268.621 469.27 269.209 469.401 269.749 469.766C270.295 470.134 270.637 470.63 270.775 471.253C270.923 471.873 270.823 472.441 270.476 472.956C270.132 473.465 269.643 473.77 269.008 473.872C268.384 473.971 267.798 473.837 267.252 473.468ZM269.022 499.115C267.577 498.141 266.551 496.987 265.942 495.654C265.34 494.325 265.137 492.913 265.332 491.418C265.537 489.921 266.134 488.44 267.121 486.977C268.112 485.507 269.271 484.401 270.593 483.658C271.922 482.909 273.312 482.568 274.765 482.634C276.229 482.699 277.668 483.208 279.081 484.161C280.256 484.953 281.149 485.871 281.761 486.914C282.384 487.956 282.7 489.051 282.711 490.201C282.726 491.344 282.419 492.462 281.791 493.555L278.532 491.357C278.87 490.571 278.948 489.778 278.765 488.978C278.593 488.177 278.096 487.499 277.273 486.944C276.576 486.474 275.836 486.249 275.054 486.27C274.277 486.285 273.506 486.541 272.741 487.039C271.981 487.541 271.273 488.279 270.616 489.253C269.951 490.239 269.524 491.184 269.334 492.089C269.148 492.987 269.187 493.803 269.45 494.538C269.723 495.271 270.215 495.877 270.925 496.355C271.427 496.694 271.94 496.903 272.462 496.981C272.996 497.058 273.52 497.005 274.036 496.823C274.552 496.641 275.036 496.323 275.488 495.869L278.747 498.068C277.975 499.037 277.062 499.741 276.007 500.181C274.956 500.614 273.831 500.751 272.632 500.591C271.438 500.425 270.234 499.933 269.022 499.115ZM279.804 505.976L289.564 491.506L292.974 493.806L283.215 508.277L279.804 505.976ZM292.664 490.609C292.124 490.244 291.781 489.752 291.632 489.131C291.489 488.504 291.588 487.937 291.931 487.428C292.278 486.913 292.767 486.608 293.398 486.512C294.033 486.411 294.621 486.542 295.161 486.906C295.708 487.275 296.049 487.771 296.187 488.393C296.335 489.014 296.235 489.582 295.888 490.097C295.545 490.605 295.055 490.911 294.42 491.012C293.796 491.112 293.21 490.977 292.664 490.609ZM292.28 514.817C291.363 514.198 290.647 513.478 290.132 512.655C289.629 511.831 289.381 510.952 289.39 510.017C289.406 509.086 289.733 508.146 290.373 507.198C290.924 506.381 291.53 505.808 292.191 505.477C292.853 505.147 293.552 504.997 294.29 505.029C295.027 505.06 295.777 505.214 296.541 505.492C297.315 505.767 298.079 506.104 298.833 506.503C299.74 506.987 300.481 507.372 301.055 507.659C301.633 507.94 302.093 508.085 302.433 508.095C302.784 508.103 303.069 507.944 303.29 507.618L303.328 507.561C303.807 506.851 303.967 506.16 303.81 505.487C303.652 504.814 303.176 504.21 302.384 503.676C301.549 503.113 300.764 502.848 300.028 502.882C299.299 502.92 298.682 503.13 298.178 503.512L295.299 500.912C296.143 500.202 297.054 499.747 298.03 499.546C299.01 499.339 300.017 499.37 301.051 499.638C302.09 499.9 303.115 500.372 304.126 501.054C304.823 501.524 305.462 502.074 306.043 502.703C306.623 503.333 307.072 504.028 307.39 504.791C307.711 505.547 307.829 506.362 307.742 507.235C307.662 508.113 307.298 509.032 306.649 509.993L300.117 519.678L296.838 517.467L298.179 515.479L298.066 515.403C297.588 515.665 297.042 515.845 296.427 515.942C295.824 516.038 295.168 516.002 294.458 515.834C293.759 515.664 293.033 515.325 292.28 514.817ZM294.855 512.908C295.54 513.37 296.225 513.635 296.909 513.704C297.598 513.766 298.23 513.663 298.805 513.393C299.386 513.127 299.857 512.727 300.217 512.193L301.367 510.488C301.201 510.504 300.964 510.463 300.656 510.364C300.354 510.27 300.027 510.146 299.674 509.99C299.322 509.835 298.978 509.676 298.64 509.512C298.303 509.348 298.01 509.206 297.763 509.085C297.208 508.811 296.676 508.617 296.168 508.503C295.66 508.388 295.195 508.394 294.772 508.52C294.353 508.64 293.996 508.919 293.699 509.359C293.275 509.987 293.185 510.616 293.427 511.246C293.67 511.875 294.146 512.429 294.855 512.908ZM221.865 494.132L218.342 491.756C218.631 491.11 218.791 490.473 218.822 489.845C218.857 489.211 218.779 488.601 218.589 488.016C218.399 487.431 218.099 486.886 217.69 486.382C217.292 485.875 216.797 485.423 216.207 485.025C215.158 484.317 214.05 483.954 212.884 483.935C211.723 483.91 210.571 484.248 209.431 484.95C208.295 485.646 207.237 486.719 206.259 488.17C205.263 489.646 204.653 491.044 204.43 492.365C204.217 493.683 204.339 494.871 204.795 495.928C205.262 496.983 206.017 497.862 207.06 498.566C207.637 498.955 208.228 499.244 208.832 499.433C209.447 499.619 210.057 499.697 210.662 499.666C211.274 499.64 211.866 499.5 212.439 499.247C213.018 498.998 213.552 498.627 214.04 498.134L217.551 500.529C216.8 501.357 215.934 502.025 214.952 502.532C213.977 503.044 212.929 503.37 211.811 503.511C210.697 503.646 209.552 503.568 208.377 503.278C207.206 502.982 206.046 502.446 204.896 501.671C203.201 500.527 201.952 499.114 201.15 497.431C200.348 495.747 200.064 493.906 200.297 491.907C200.531 489.908 201.347 487.872 202.745 485.8C204.147 483.721 205.732 482.204 207.5 481.249C209.272 480.288 211.089 479.864 212.95 479.977C214.811 480.09 216.583 480.714 218.266 481.85C219.34 482.574 220.237 483.398 220.957 484.322C221.677 485.247 222.201 486.244 222.529 487.316C222.862 488.381 222.977 489.491 222.874 490.646C222.781 491.799 222.445 492.961 221.865 494.132ZM221.851 513.148C220.934 512.53 220.218 511.809 219.704 510.987C219.2 510.163 218.952 509.283 218.962 508.348C218.977 507.418 219.305 506.478 219.944 505.53C220.495 504.713 221.101 504.14 221.763 503.809C222.424 503.479 223.124 503.329 223.861 503.36C224.599 503.392 225.349 503.546 226.112 503.823C226.886 504.098 227.65 504.436 228.404 504.835C229.312 505.319 230.052 505.704 230.626 505.991C231.205 506.271 231.664 506.417 232.005 506.427C232.355 506.435 232.641 506.276 232.861 505.949L232.899 505.893C233.378 505.183 233.538 504.492 233.38 503.818C233.222 503.145 232.747 502.542 231.956 502.008C231.121 501.444 230.335 501.18 229.6 501.213C228.87 501.252 228.254 501.462 227.749 501.843L224.87 499.243C225.714 498.533 226.624 498.078 227.601 497.878C228.581 497.671 229.588 497.701 230.623 497.97C231.661 498.232 232.686 498.704 233.697 499.386C234.394 499.856 235.033 500.406 235.614 501.035C236.195 501.664 236.644 502.36 236.961 503.122C237.283 503.878 237.4 504.693 237.314 505.567C237.233 506.445 236.869 507.364 236.221 508.325L229.688 518.01L226.41 515.798L227.751 513.81L227.638 513.734C227.159 513.996 226.613 514.176 225.999 514.274C225.395 514.369 224.739 514.333 224.03 514.165C223.331 513.996 222.605 513.657 221.851 513.148ZM224.427 511.24C225.111 511.701 225.796 511.967 226.481 512.035C227.17 512.098 227.802 511.994 228.377 511.724C228.958 511.458 229.429 511.059 229.789 510.525L230.939 508.82C230.773 508.836 230.536 508.794 230.227 508.696C229.925 508.602 229.598 508.477 229.246 508.322C228.894 508.167 228.549 508.007 228.212 507.844C227.874 507.68 227.582 507.538 227.335 507.416C226.779 507.142 226.248 506.948 225.74 506.834C225.232 506.72 224.767 506.726 224.343 506.852C223.925 506.972 223.567 507.251 223.271 507.691C222.847 508.319 222.756 508.948 222.999 509.577C223.241 510.207 223.717 510.761 224.427 511.24ZM239.908 525.273C238.771 524.506 237.95 523.528 237.446 522.338C236.942 521.148 236.804 519.821 237.033 518.358C237.261 516.895 237.912 515.369 238.983 513.78C240.068 512.172 241.247 510.993 242.52 510.244C243.804 509.492 245.088 509.139 246.374 509.183C247.664 509.222 248.865 509.616 249.976 510.366C250.824 510.938 251.424 511.552 251.775 512.21C252.131 512.861 252.334 513.496 252.383 514.114C252.436 514.725 252.432 515.266 252.371 515.737L252.512 515.832L257.38 508.616L260.799 510.922L247.786 530.216L244.432 527.954L245.969 525.674L245.762 525.534C245.349 525.768 244.843 525.97 244.243 526.141C243.647 526.306 242.983 526.342 242.25 526.25C241.518 526.158 240.737 525.832 239.908 525.273ZM242.746 523.117C243.469 523.604 244.216 523.824 244.987 523.778C245.763 523.725 246.519 523.436 247.258 522.911C247.996 522.385 248.681 521.655 249.312 520.719C249.943 519.783 250.36 518.881 250.562 518.012C250.771 517.147 250.75 516.352 250.499 515.626C250.255 514.904 249.766 514.295 249.031 513.799C248.271 513.287 247.503 513.057 246.728 513.109C245.952 513.162 245.2 513.45 244.473 513.973C243.745 514.497 243.078 515.207 242.472 516.106C241.862 517.01 241.447 517.904 241.226 518.787C241.015 519.669 241.026 520.485 241.26 521.236C241.503 521.986 241.999 522.612 242.746 523.117ZM259.228 538.345C257.777 537.366 256.726 536.22 256.078 534.905C255.44 533.588 255.213 532.184 255.398 530.691C255.587 529.191 256.192 527.685 257.213 526.171C258.217 524.683 259.38 523.567 260.704 522.824C262.038 522.079 263.429 521.738 264.876 521.8C266.328 521.857 267.744 522.351 269.126 523.283C270.018 523.884 270.762 524.596 271.359 525.419C271.966 526.24 272.373 527.154 272.579 528.161C272.792 529.173 272.763 530.259 272.492 531.42C272.226 532.574 271.665 533.785 270.81 535.054L270.103 536.1L258.242 528.1L259.793 525.801L268.385 531.596C268.819 530.939 269.069 530.262 269.136 529.567C269.207 528.866 269.094 528.2 268.797 527.57C268.506 526.945 268.034 526.412 267.381 525.971C266.684 525.501 265.957 525.257 265.201 525.241C264.45 525.218 263.741 525.38 263.077 525.727C262.424 526.072 261.877 526.566 261.435 527.209L260.08 529.216C259.512 530.057 259.179 530.883 259.08 531.694C258.985 532.498 259.106 533.247 259.443 533.94C259.784 534.627 260.325 535.22 261.066 535.72C261.562 536.055 262.058 536.288 262.553 536.421C263.052 536.548 263.543 536.573 264.024 536.496C264.507 536.418 264.96 536.226 265.386 535.92L268.329 538.426C267.56 539.132 266.681 539.608 265.692 539.855C264.715 540.1 263.672 540.1 262.566 539.857C261.464 539.607 260.352 539.103 259.228 538.345ZM279.458 539.244L273.739 547.722L270.329 545.422L280.09 530.952L283.349 533.15L281.691 535.609L281.86 535.723C282.739 535.138 283.704 534.852 284.755 534.866C285.812 534.884 286.881 535.258 287.961 535.987C288.96 536.66 289.685 537.46 290.138 538.387C290.597 539.319 290.758 540.327 290.62 541.412C290.488 542.502 290.029 543.623 289.243 544.774L283.028 553.988L279.618 551.688L285.478 543.001C286.13 542.034 286.388 541.108 286.254 540.223C286.127 539.342 285.623 538.605 284.744 538.011C284.148 537.609 283.528 537.383 282.885 537.333C282.253 537.281 281.641 537.412 281.047 537.724C280.459 538.04 279.929 538.546 279.458 539.244ZM292.054 560.501C291.137 559.882 290.421 559.162 289.907 558.34C289.403 557.515 289.155 556.636 289.165 555.701C289.18 554.77 289.508 553.83 290.147 552.882C290.698 552.066 291.304 551.492 291.966 551.162C292.627 550.831 293.327 550.681 294.064 550.713C294.801 550.744 295.552 550.898 296.315 551.176C297.089 551.451 297.853 551.788 298.607 552.187C299.514 552.671 300.255 553.056 300.829 553.343C301.408 553.624 301.867 553.769 302.207 553.779C302.558 553.788 302.844 553.628 303.064 553.302L303.103 553.245C303.581 552.536 303.741 551.844 303.583 551.171C303.425 550.498 302.95 549.894 302.159 549.36C301.324 548.797 300.538 548.532 299.802 548.566C299.073 548.604 298.456 548.814 297.952 549.196L295.073 546.596C295.917 545.886 296.827 545.431 297.803 545.23C298.784 545.023 299.791 545.054 300.825 545.322C301.864 545.584 302.889 546.056 303.9 546.738C304.597 547.208 305.236 547.758 305.817 548.387C306.398 549.017 306.847 549.712 307.164 550.475C307.486 551.231 307.604 552.046 307.517 552.919C307.437 553.797 307.072 554.717 306.424 555.677L299.892 565.362L296.613 563.151L297.954 561.163L297.841 561.087C297.362 561.349 296.816 561.529 296.202 561.626C295.598 561.722 294.942 561.686 294.233 561.518C293.534 561.348 292.808 561.009 292.054 560.501ZM294.63 558.592C295.314 559.054 296 559.319 296.685 559.388C297.373 559.451 298.004 559.347 298.579 559.077C299.161 558.811 299.632 558.411 299.992 557.877L301.142 556.172C300.976 556.188 300.739 556.147 300.43 556.048C300.128 555.954 299.801 555.83 299.449 555.674C299.097 555.519 298.752 555.36 298.415 555.196C298.077 555.032 297.785 554.89 297.537 554.769C296.982 554.495 296.451 554.301 295.943 554.187C295.435 554.073 294.969 554.078 294.547 554.204C294.129 554.324 293.77 554.604 293.473 555.043C293.05 555.671 292.959 556.3 293.202 556.93C293.444 557.559 293.92 558.113 294.63 558.592ZM323.53 565.818L320.192 564.06C320.316 563.686 320.361 563.287 320.328 562.863C320.301 562.442 320.162 562.025 319.912 561.609C319.662 561.194 319.274 560.808 318.746 560.453C318.036 559.974 317.337 559.725 316.646 559.707C315.961 559.693 315.455 559.933 315.131 560.427C314.841 560.843 314.764 561.289 314.9 561.765C315.042 562.245 315.424 562.817 316.044 563.483L318.157 565.675C319.327 566.894 320.029 568.048 320.262 569.138C320.502 570.231 320.276 571.299 319.583 572.339C318.963 573.246 318.153 573.87 317.156 574.211C316.168 574.55 315.079 574.601 313.886 574.363C312.694 574.126 311.495 573.6 310.289 572.787C308.518 571.592 307.342 570.26 306.762 568.79C306.186 567.314 306.243 565.841 306.935 564.369L310.476 566.292C310.186 567.047 310.174 567.756 310.439 568.419C310.704 569.083 311.23 569.679 312.015 570.209C312.825 570.755 313.587 571.027 314.302 571.025C315.022 571.027 315.549 570.782 315.879 570.293C316.159 569.878 316.229 569.428 316.09 568.942C315.959 568.46 315.609 567.922 315.04 567.329L312.922 565.146C311.729 563.92 311.031 562.741 310.826 561.607C310.627 560.467 310.885 559.372 311.603 558.321C312.198 557.425 312.961 556.816 313.892 556.493C314.833 556.168 315.864 556.123 316.984 556.358C318.116 556.591 319.259 557.098 320.415 557.877C322.11 559.021 323.201 560.282 323.688 561.661C324.18 563.044 324.128 564.43 323.53 565.818Z" fill="black"/>
<path fill-rule="evenodd" clip-rule="evenodd" d="M551.982 249.551C561.354 256.873 574.739 255.399 581.879 246.26C589.02 237.121 587.211 223.777 577.84 216.455C573.64 213.174 568.634 211.659 563.745 211.809C562.708 207.029 560.027 202.538 555.827 199.257C546.456 191.935 533.071 193.409 525.93 202.548C518.79 211.688 520.598 225.032 529.97 232.353C534.17 235.635 539.176 237.149 544.065 236.999C545.102 241.779 547.783 246.27 551.982 249.551Z" fill="#ED0006"/>
<path fill-rule="evenodd" clip-rule="evenodd" d="M544.383 236.918C550.454 236.774 556.329 234.09 560.269 229.047C564.209 224.004 565.392 217.654 564.064 211.729C568.994 211.611 574.055 213.168 578.314 216.496C587.817 223.92 589.732 237.348 582.592 246.487C575.451 255.627 561.959 257.017 552.456 249.592C548.197 246.265 545.462 241.731 544.383 236.918Z" fill="#F9A000"/>
</g>
<defs>
<filter id="filter0_dd_806_4153" x="0.796875" y="0" width="959.652" height="861.992" filterUnits="userSpaceOnUse" color-interpolation-filters="sRGB">
<feFlood flood-opacity="0" result="BackgroundImageFix"/>
<feColorMatrix in="SourceAlpha" type="matrix" values="0 0 0 0 0 0 0 0 0 0 0 0 0 0 0 0 0 0 127 0" result="hardAlpha"/>
<feOffset dy="9.94853"/>
<feGaussianBlur stdDeviation="22.3088"/>
<feColorMatrix type="matrix" values="0 0 0 0 0.613725 0 0 0 0 0.613725 0 0 0 0 0.613725 0 0 0 0.058643 0"/>
<feBlend mode="normal" in2="BackgroundImageFix" result="effect1_dropShadow_806_4153"/>
<feColorMatrix in="SourceAlpha" type="matrix" values="0 0 0 0 0 0 0 0 0 0 0 0 0 0 0 0 0 0 127 0" result="hardAlpha"/>
<feOffset dy="33"/>
<feGaussianBlur stdDeviation="74"/>
<feColorMatrix type="matrix" values="0 0 0 0 0.480404 0 0 0 0 0.480404 0 0 0 0 0.480404 0 0 0 0.09 0"/>
<feBlend mode="normal" in2="effect1_dropShadow_806_4153" result="effect2_dropShadow_806_4153"/>
<feBlend mode="normal" in="SourceGraphic" in2="effect2_dropShadow_806_4153" result="shape"/>
</filter>
<filter id="filter1_i_806_4153" x="149" y="115" width="665.71" height="562.112" filterUnits="userSpaceOnUse" color-interpolation-filters="sRGB">
<feFlood flood-opacity="0" result="BackgroundImageFix"/>
<feBlend mode="normal" in="SourceGraphic" in2="BackgroundImageFix" result="shape"/>
<feColorMatrix in="SourceAlpha" type="matrix" values="0 0 0 0 0 0 0 0 0 0 0 0 0 0 0 0 0 0 127 0" result="hardAlpha"/>
<feOffset dx="2.2604" dy="2.2604"/>
<feGaussianBlur stdDeviation="2.2604"/>
<feComposite in2="hardAlpha" operator="arithmetic" k2="-1" k3="1"/>
<feColorMatrix type="matrix" values="0 0 0 0 1 0 0 0 0 1 0 0 0 0 1 0 0 0 0.05 0"/>
<feBlend mode="normal" in2="shape" result="effect1_innerShadow_806_4153"/>
</filter>
<linearGradient id="paint0_linear_806_4153" x1="617.825" y1="308.442" x2="620.358" y2="243.616" gradientUnits="userSpaceOnUse">
<stop stop-color="#F4F4F4"/>
<stop offset="1" stop-color="#D6D6D6"/>
</linearGradient>
</defs>
</svg>
