<svg width="174" height="44" viewBox="0 0 174 44" fill="none" xmlns="http://www.w3.org/2000/svg">
<path d="M15.8191 0.464844H17.2173L19.1912 0.572271L20.3975 0.679699L21.4119 0.813983L22.3441 0.975125L23.3859 1.18998L24.5922 1.51226L25.5792 1.83455L26.4016 2.12997L27.3612 2.53282L28.1289 2.88196L28.9239 3.28482L29.5819 3.66081L30.1851 4.00995L30.9253 4.49338L31.9123 5.19166L32.3509 5.5408L32.6251 5.75565L32.8992 5.99736L33.2008 6.23908L33.6669 6.66879L34.2426 7.23278L34.4345 7.44764L34.791 7.85049L35.0925 8.19963L35.3393 8.49506L35.6409 8.87105L36.0247 9.38133L36.3537 9.8379L36.573 10.1602L36.9294 10.6973L37.2036 11.1539L37.4503 11.5836L37.6971 12.0402L37.9986 12.6579L38.355 13.4367L38.7114 14.3767L39.1501 15.7196L39.4243 16.7401L39.6436 17.707L39.7807 18.5664L39.9452 20.0435L39.9726 20.3658L40 21.0909V22.9978L39.9452 23.8841L39.8355 24.9046L39.6436 26.1669L39.3968 27.2949L39.1227 28.3692L38.6566 29.7657L38.218 30.8131L37.889 31.5114L37.6696 31.9411L37.2584 32.72L37.0391 33.0691L36.7649 33.5257L36.3263 34.1702L35.9424 34.7074L35.6409 35.1371L35.3667 35.4862L34.7635 36.1845L34.3797 36.5874L34.0781 36.9096L33.2282 37.7422L32.9267 37.9839L32.6251 38.2525L32.2687 38.5211L31.9397 38.7896L31.6655 39.0045L31.2543 39.2999L30.7334 39.6491L30.1576 40.025L29.6916 40.2936L29.0336 40.6696L28.2934 41.0456L27.8547 41.2605L27.2241 41.5559L26.292 41.9319L25.3598 42.2542L24.6744 42.469L23.4407 42.7913L22.4263 43.0062L21.0829 43.2479L20.0137 43.3822L19.0267 43.4627L17.9027 43.5164L3.94791 43.5433H0.13708L0.027416 43.5164L0 43.3553V28.6646L0.0548321 28.584H9.48595L9.62303 28.6377V30.9206L9.59561 34.976L16.2303 34.9491L17.6833 34.9222L18.6703 34.8417L19.4106 34.7611L20.2056 34.6268L20.8636 34.4657L21.6587 34.224L22.2344 34.0091L23.0843 33.66L23.7697 33.3108L24.4003 32.9348L24.8115 32.6663L25.2776 32.344L25.6066 32.1023L25.9904 31.8068L26.2097 31.6188L26.4016 31.404L26.7032 31.1086L26.8951 30.8937L27.2515 30.464L27.5805 30.0343L27.7724 29.7389L27.9369 29.4971L28.2659 28.96L28.5949 28.3692L28.8691 27.8052L29.1432 27.1069L29.39 26.3012L29.6093 25.4686L29.7738 24.6092L29.8835 23.7766L29.9383 23.2663L29.9657 22.6486V21.3864L29.9109 20.6075L29.7738 19.5601L29.4997 18.271L29.2803 17.4921L29.0336 16.767L28.6223 15.8538L28.2659 15.1824L27.9369 14.6453L27.608 14.1619L27.3338 13.7859L27.0048 13.3562L26.6484 12.9533L26.5113 12.819V12.7653H26.4565L26.2646 12.5504L26.0727 12.3624L25.8533 12.1744L25.4695 11.8522L25.1131 11.5836L24.647 11.2613L24.0713 10.9122L23.5504 10.6167L23.1391 10.4019L22.2892 10.0528L21.549 9.78419L20.7265 9.54247L19.9863 9.38133L18.9993 9.22019L17.9027 9.11276H15.8465L15.7916 8.95162V0.518558L15.8191 0.464844Z" fill="#296253"/>
<path d="M3.34425 3.01758H5.40045L6.71642 3.04444L7.1825 3.07129L7.42924 3.12501L7.59374 3.23243L7.81306 3.47415L7.92273 3.74271L7.97756 4.01128L8.00498 4.95127L8.03239 9.83923L8.14206 10.1078L8.3888 10.3764L9.01937 10.9941L9.2387 11.1821L9.64994 11.5849L9.9241 11.7729L10.0886 11.8535L10.2805 11.8804L11.6239 11.9072L14.9961 11.9341L15.3799 11.9878L15.6541 12.0952L15.8734 12.2832L16.0105 12.5249L16.0379 12.6592L16.0653 13.0889V17.7889L15.983 18.1649L15.7637 18.4603L15.4896 18.6483L15.2428 18.7289L15.0783 18.7557L14.2558 18.7826L9.95152 18.8094L9.73219 18.9169L9.40319 19.2123L8.71779 19.8837H8.66296L8.60813 19.9911L8.30655 20.2866L8.11464 20.4477L8.03239 20.77L8.00498 23.778L7.95014 24.2077L7.84048 24.4494L7.64857 24.7448L7.48407 24.8791L7.29216 24.9597L7.15508 24.9865L6.77126 25.0134L5.45529 25.0402H4.1119L3.53616 25.0134L3.20717 24.9597L3.04267 24.8522L2.76851 24.4762L2.65885 24.2077L2.60402 23.9928L2.5766 23.6974V21.0117L2.60402 20.6357L2.7411 20.2866L2.93301 19.9911L3.04267 19.8568L3.31683 19.7226L3.4265 19.6957L5.83911 19.6689L7.07283 19.642L7.37441 19.5614L7.62115 19.3734L8.85487 18.1649L8.88229 18.1112H8.93712L8.99195 18.0037L9.04679 17.9232L9.10162 17.5203L9.12903 14.3243V13.0621L9.0742 12.7935L8.96454 12.5786L8.66296 12.2295L7.5389 11.1284L7.20991 10.8866L7.15508 10.8598L1.56221 10.8329L1.01389 10.8061L0.657479 10.7255L0.465567 10.5644L0.30107 10.3495L0.218822 10.0809L0.191406 9.65123V3.95757L0.273654 3.501L0.438151 3.28615L0.575231 3.17872L0.931639 3.07129L1.50738 3.04444L3.34425 3.01758Z" fill="#296253"/>
<path d="M41.728 18.4079L43.648 18.1919V30.5039H41.728V18.4079ZM41.416 14.9759C41.416 14.6079 41.536 14.3039 41.776 14.0639C42.032 13.8079 42.344 13.6799 42.712 13.6799C43.096 13.6799 43.416 13.8079 43.672 14.0639C43.944 14.3039 44.08 14.6079 44.08 14.9759C44.08 15.3439 43.944 15.6559 43.672 15.9119C43.416 16.1519 43.096 16.2719 42.712 16.2719C42.344 16.2719 42.032 16.1519 41.776 15.9119C41.536 15.6559 41.416 15.3439 41.416 14.9759ZM55.3512 31.6559C55.3512 32.2479 55.2872 32.8239 55.1592 33.3839C55.0312 33.9439 54.7832 34.4399 54.4152 34.8719C54.0632 35.3199 53.5592 35.6719 52.9032 35.9279C52.2632 36.1999 51.4152 36.3359 50.3592 36.3359C49.6872 36.3199 49.1032 36.2799 48.6072 36.2159C48.1112 36.1519 47.6392 36.0559 47.1912 35.9279C46.7432 35.8159 46.3352 35.6799 45.9672 35.5199L46.4712 33.8399C47.0952 34.1119 47.7272 34.3199 48.3672 34.4639C49.0232 34.6079 49.6072 34.6799 50.1192 34.6799C50.6792 34.6799 51.1672 34.6239 51.5832 34.5119C51.9992 34.3999 52.3432 34.2079 52.6152 33.9359C52.9032 33.6799 53.1112 33.3359 53.2392 32.9039C53.3832 32.4719 53.4552 31.9359 53.4552 31.2959V29.5439C53.1192 29.7679 52.7672 29.9759 52.3992 30.1679C52.0472 30.3439 51.6632 30.4959 51.2472 30.6239C50.8472 30.7519 50.4552 30.8159 50.0712 30.8159C48.5832 30.8159 47.4072 30.2959 46.5432 29.2559C45.6792 28.1999 45.2472 26.6319 45.2472 24.5519C45.2472 23.3519 45.4312 22.3519 45.7992 21.5519C46.1832 20.7359 46.6632 20.0799 47.2392 19.5839C47.8152 19.0879 48.4472 18.7359 49.1352 18.5279C49.8232 18.3039 50.4792 18.1919 51.1032 18.1919C51.9192 18.1919 52.6632 18.2639 53.3352 18.4079C54.0232 18.5359 54.6952 18.6399 55.3512 18.7199V31.6559ZM50.2872 29.1359C50.6392 29.1359 50.9992 29.0719 51.3672 28.9439C51.7352 28.8159 52.0872 28.6639 52.4232 28.4879C52.7752 28.3119 53.1192 28.1039 53.4552 27.8639V20.2079C53.2632 20.1599 53.0392 20.1039 52.7832 20.0399C52.5592 20.0079 52.3032 19.9759 52.0152 19.9439C51.7272 19.8959 51.4232 19.8719 51.1032 19.8719C50.4312 19.8719 49.8552 19.9919 49.3752 20.2319C48.8952 20.4719 48.4952 20.7999 48.1752 21.2159C47.8712 21.6319 47.6472 22.1199 47.5032 22.6799C47.3592 23.2399 47.2872 23.8319 47.2872 24.4559C47.2872 25.0159 47.3432 25.5759 47.4552 26.1359C47.5832 26.6959 47.7752 27.1999 48.0312 27.6479C48.2872 28.0959 48.5992 28.4559 48.9672 28.7279C49.3352 28.9999 49.7752 29.1359 50.2872 29.1359ZM57.6093 18.4079L59.5293 18.1919V30.5039H57.6093V18.4079ZM57.2973 14.9759C57.2973 14.6079 57.4173 14.3039 57.6573 14.0639C57.9133 13.8079 58.2253 13.6799 58.5933 13.6799C58.9773 13.6799 59.2973 13.8079 59.5533 14.0639C59.8253 14.3039 59.9613 14.6079 59.9613 14.9759C59.9613 15.3439 59.8253 15.6559 59.5533 15.9119C59.2973 16.1519 58.9773 16.2719 58.5933 16.2719C58.2253 16.2719 57.9133 16.1519 57.6573 15.9119C57.4173 15.6559 57.2973 15.3439 57.2973 14.9759ZM62.6164 14.1359H65.1844L68.8804 23.8799C69.0884 24.4399 69.2804 24.9599 69.4564 25.4399C69.6324 25.9039 69.7844 26.3199 69.9124 26.6879C70.0724 27.1039 70.2084 27.4879 70.3204 27.8399H70.3684C70.4644 27.4879 70.5844 27.1039 70.7284 26.6879C70.8564 26.3199 71.0004 25.9039 71.1604 25.4399C71.3204 24.9599 71.5124 24.4399 71.7364 23.8799L75.5044 14.1359H78.0724L78.9124 30.5039H76.8724L76.4644 21.5039C76.4324 20.7199 76.4084 20.0559 76.3924 19.5119C76.3764 18.9679 76.3684 18.5199 76.3684 18.1679V17.1599H76.3204C76.2244 17.3999 76.1044 17.7279 75.9604 18.1439C75.8324 18.4959 75.6644 18.9519 75.4564 19.5119C75.2644 20.0559 75.0244 20.7199 74.7364 21.5039L71.3524 30.5039H69.3124L65.9044 21.5039C65.6004 20.7359 65.3524 20.0799 65.1604 19.5359C64.9684 18.9759 64.8084 18.5199 64.6804 18.1679C64.5364 17.7519 64.4244 17.4159 64.3444 17.1599H64.2964C64.3124 17.4159 64.3284 17.7519 64.3444 18.1679C64.3604 18.8399 64.3364 19.9519 64.2724 21.5039L63.7924 30.5039H61.7524L62.6164 14.1359ZM89.9419 30.2159C89.5739 30.3279 89.1899 30.4239 88.7899 30.5039C88.4059 30.5839 87.9739 30.6559 87.4939 30.7199C87.0299 30.7839 86.5419 30.8159 86.0299 30.8159C85.2299 30.8159 84.4859 30.7039 83.7979 30.4799C83.1099 30.2559 82.5099 29.8959 81.9979 29.3999C81.4859 28.9039 81.0779 28.2639 80.7739 27.4799C80.4859 26.6799 80.3419 25.7039 80.3419 24.5519C80.3419 23.5119 80.4859 22.5999 80.7739 21.8159C81.0619 21.0159 81.4539 20.3519 81.9499 19.8239C82.4619 19.2799 83.0539 18.8719 83.7259 18.5999C84.4139 18.3279 85.1579 18.1919 85.9579 18.1919C86.7419 18.1919 87.4219 18.3439 87.9979 18.6479C88.5739 18.9519 89.0459 19.3679 89.4139 19.8959C89.7979 20.4079 90.0779 21.0159 90.2539 21.7199C90.4459 22.4079 90.5419 23.1359 90.5419 23.9039L90.1819 24.9599H82.4299C82.4299 25.4559 82.4939 25.9519 82.6219 26.4479C82.7499 26.9439 82.9659 27.3919 83.2699 27.7919C83.5899 28.1919 83.9979 28.5199 84.4939 28.7759C85.0059 29.0159 85.6379 29.1359 86.3899 29.1359C86.8699 29.1359 87.3099 29.1119 87.7099 29.0639C88.1099 28.9999 88.4539 28.9359 88.7419 28.8719C89.0459 28.7919 89.3259 28.7039 89.5819 28.6079L89.9419 30.2159ZM88.5499 23.4239C88.5499 23.3119 88.5259 23.0639 88.4779 22.6799C88.4299 22.2959 88.3179 21.8959 88.1419 21.4799C87.9659 21.0639 87.6939 20.6959 87.3259 20.3759C86.9579 20.0399 86.4699 19.8719 85.8619 19.8719C85.1899 19.8719 84.6379 20.0159 84.2059 20.3039C83.7739 20.5759 83.4299 20.9039 83.1739 21.2879C82.9179 21.6719 82.7419 22.0639 82.6459 22.4639C82.5499 22.8639 82.5019 23.1839 82.5019 23.4239H88.5499ZM91.9786 20.3759C91.9786 20.0079 91.9386 19.4319 91.8586 18.6479L93.6346 18.4079L93.8266 20.1599H93.8506C94.1386 19.7919 94.4186 19.4719 94.6906 19.1999C94.9626 18.9279 95.2426 18.6959 95.5306 18.5039C95.8346 18.2959 96.1226 18.1919 96.3946 18.1919C96.7626 18.1759 97.2746 18.2159 97.9306 18.3119L97.4986 20.1599C96.9706 20.0639 96.6026 20.0239 96.3946 20.0399C96.1226 20.0399 95.8346 20.1679 95.5306 20.4239C95.2266 20.6799 94.9626 20.9519 94.7386 21.2399C94.4506 21.5919 94.1706 21.9919 93.8986 22.4399V30.5039H91.9786V20.3759ZM105.977 20.1839C105.705 20.1199 105.329 20.0559 104.849 19.9919C104.369 19.9119 103.881 19.8719 103.385 19.8719C102.665 19.8719 102.073 20.0159 101.609 20.3039C101.161 20.5919 100.809 20.9679 100.553 21.4319C100.297 21.8799 100.121 22.3839 100.025 22.9439C99.9289 23.4879 99.8809 24.0239 99.8809 24.5519C99.8809 25.3679 99.9849 26.0719 100.193 26.6639C100.401 27.2399 100.673 27.7119 101.009 28.0799C101.361 28.4479 101.761 28.7199 102.209 28.8959C102.657 29.0559 103.129 29.1359 103.625 29.1359C103.961 29.1359 104.281 29.1199 104.585 29.0879C104.905 29.0399 105.193 28.9919 105.449 28.9439C105.721 28.8799 105.977 28.8079 106.217 28.7279L106.601 30.3359C106.265 30.4319 105.953 30.5119 105.665 30.5759C105.377 30.6399 105.033 30.6959 104.633 30.7439C104.249 30.7919 103.833 30.8159 103.385 30.8159C102.505 30.8159 101.721 30.7039 101.033 30.4799C100.345 30.2559 99.7609 29.8959 99.2809 29.3999C98.8169 28.9039 98.4569 28.2559 98.2009 27.4559C97.9609 26.6559 97.8409 25.6799 97.8409 24.5279C97.8409 23.4079 97.9929 22.4479 98.2969 21.6479C98.6169 20.8319 99.0329 20.1759 99.5449 19.6799C100.057 19.1679 100.641 18.7919 101.297 18.5519C101.969 18.3119 102.665 18.1919 103.385 18.1919C103.769 18.1919 104.137 18.2159 104.489 18.2639C104.857 18.2959 105.177 18.3359 105.449 18.3839C105.769 18.4479 106.073 18.5119 106.361 18.5759L105.977 20.1839ZM114.392 24.9599C114.072 24.9759 113.768 24.9919 113.48 25.0079C113.192 25.0239 112.904 25.0479 112.616 25.0799C112.344 25.0959 112.096 25.1199 111.872 25.1519C110.72 25.2959 109.904 25.5519 109.424 25.9199C108.944 26.2719 108.704 26.7839 108.704 27.4559C108.704 28.0159 108.872 28.4399 109.208 28.7279C109.56 28.9999 110.016 29.1359 110.576 29.1359C111.344 29.1359 112.024 29.0079 112.616 28.7519C113.224 28.4799 113.816 28.1279 114.392 27.6959V24.9599ZM114.368 29.3759C113.616 29.8079 112.912 30.1599 112.256 30.4319C111.616 30.6879 110.92 30.8159 110.168 30.8159C109.096 30.8159 108.24 30.5599 107.6 30.0479C106.976 29.5199 106.664 28.6559 106.664 27.4559C106.664 26.8319 106.824 26.2879 107.144 25.8239C107.464 25.3599 107.88 24.9759 108.392 24.6719C108.92 24.3519 109.512 24.1039 110.168 23.9279C110.824 23.7519 111.496 23.6399 112.184 23.5919C112.472 23.5599 112.848 23.5359 113.312 23.5199C113.776 23.4879 114.136 23.4639 114.392 23.4479C114.392 22.8879 114.376 22.3919 114.344 21.9599C114.312 21.5119 114.216 21.1359 114.056 20.8319C113.896 20.5119 113.656 20.2719 113.336 20.1119C113.032 19.9519 112.592 19.8719 112.016 19.8719C111.552 19.8719 111.104 19.9039 110.672 19.9679C110.24 20.0159 109.856 20.0719 109.52 20.1359C109.12 20.2159 108.752 20.3039 108.416 20.3999L108.032 18.7439C108.432 18.6479 108.864 18.5599 109.328 18.4799C109.728 18.3999 110.192 18.3359 110.72 18.2879C111.248 18.2239 111.816 18.1919 112.424 18.1919C113.24 18.1919 113.896 18.3119 114.392 18.5519C114.904 18.7919 115.296 19.1199 115.568 19.5359C115.856 19.9359 116.048 20.3999 116.144 20.9279C116.256 21.4399 116.312 21.9839 116.312 22.5599V28.3199C116.312 28.5439 116.312 28.7839 116.312 29.0399C116.328 29.2799 116.344 29.5199 116.36 29.7599C116.392 29.9999 116.424 30.2479 116.456 30.5039L114.608 30.6959L114.368 29.3759ZM126.031 20.2319C125.455 20.0719 125.007 19.9759 124.687 19.9439C124.367 19.8959 124.039 19.8719 123.703 19.8719C123.031 19.8719 122.455 19.9919 121.975 20.2319C121.495 20.4719 121.095 20.8079 120.775 21.2399C120.471 21.6559 120.247 22.1439 120.103 22.7039C119.959 23.2479 119.887 23.8319 119.887 24.4559C119.887 25.0159 119.943 25.5759 120.055 26.1359C120.183 26.6959 120.375 27.1999 120.631 27.6479C120.887 28.0959 121.199 28.4559 121.567 28.7279C121.935 28.9999 122.375 29.1359 122.887 29.1359C123.239 29.1359 123.599 29.0719 123.967 28.9439C124.351 28.8159 124.703 28.6719 125.023 28.5119C125.343 28.3359 125.679 28.1199 126.031 27.8639V20.2319ZM126.055 29.5439C125.687 29.7999 125.327 30.0159 124.975 30.1919C124.639 30.3519 124.263 30.4959 123.847 30.6239C123.447 30.7519 123.055 30.8159 122.671 30.8159C121.167 30.8159 119.983 30.2879 119.119 29.2319C118.271 28.1599 117.847 26.5999 117.847 24.5519C117.847 23.3359 118.039 22.3199 118.423 21.5039C118.823 20.6879 119.319 20.0399 119.911 19.5599C120.503 19.0639 121.135 18.7119 121.807 18.5039C122.495 18.2959 123.127 18.1919 123.703 18.1919C123.991 18.1919 124.295 18.2159 124.615 18.2639C124.935 18.2959 125.407 18.3919 126.031 18.5519V12.5279L127.951 12.3119V28.3199C127.951 28.5439 127.951 28.7839 127.951 29.0399C127.967 29.2799 127.983 29.5199 127.999 29.7599C128.031 29.9999 128.063 30.2479 128.095 30.5039L126.247 30.6959L126.055 29.5439ZM131.601 24.5279C131.601 26.0799 131.945 27.2399 132.633 28.0079C133.337 28.7599 134.281 29.1359 135.465 29.1359C136.633 29.1359 137.545 28.7599 138.201 28.0079C138.857 27.2559 139.185 26.1279 139.185 24.6239C139.185 23.0239 138.833 21.8319 138.129 21.0479C137.441 20.2639 136.497 19.8719 135.297 19.8719C134.097 19.8719 133.177 20.2639 132.537 21.0479C131.913 21.8159 131.601 22.9759 131.601 24.5279ZM129.561 24.5039C129.561 23.2879 129.753 22.2799 130.137 21.4799C130.521 20.6639 131.009 20.0159 131.601 19.5359C132.193 19.0399 132.825 18.6959 133.497 18.5039C134.185 18.2959 134.833 18.1919 135.441 18.1919C136.017 18.1919 136.641 18.2879 137.313 18.4799C138.001 18.6559 138.633 18.9839 139.209 19.4639C139.785 19.9279 140.265 20.5599 140.649 21.3599C141.033 22.1439 141.225 23.1439 141.225 24.3599C141.225 25.6239 141.025 26.6719 140.625 27.5039C140.241 28.3359 139.753 28.9999 139.161 29.4959C138.569 29.9759 137.929 30.3119 137.241 30.5039C136.553 30.7119 135.913 30.8159 135.321 30.8159C134.713 30.8159 134.073 30.7199 133.401 30.5279C132.729 30.3359 132.105 30.0079 131.529 29.5439C130.969 29.0639 130.497 28.4159 130.113 27.5999C129.745 26.7839 129.561 25.7519 129.561 24.5039ZM149.342 20.3999C148.67 20.1919 148.07 20.0559 147.542 19.9919C147.03 19.9119 146.558 19.8719 146.126 19.8719C145.566 19.8719 145.094 20.0079 144.71 20.2799C144.342 20.5519 144.158 20.9039 144.158 21.3359C144.174 21.7199 144.342 22.0479 144.662 22.3199C144.982 22.5919 145.35 22.8399 145.766 23.0639C146.198 23.2719 146.67 23.5039 147.182 23.7599C147.71 24.0159 148.198 24.3039 148.646 24.6239C149.11 24.9439 149.486 25.3279 149.774 25.7759C150.062 26.2239 150.214 26.7599 150.23 27.3839C150.214 28.0559 150.062 28.6159 149.774 29.0639C149.502 29.4959 149.142 29.8479 148.694 30.1199C148.262 30.3759 147.79 30.5519 147.278 30.6479C146.766 30.7599 146.286 30.8159 145.838 30.8159C145.262 30.8159 144.662 30.7839 144.038 30.7199C143.43 30.6559 142.774 30.5199 142.07 30.3119L142.43 28.5839C143.15 28.7759 143.806 28.9199 144.398 29.0159C144.99 29.0959 145.478 29.1359 145.862 29.1359C146.15 29.1359 146.43 29.1039 146.702 29.0399C146.99 28.9759 147.246 28.8879 147.47 28.7759C147.694 28.6479 147.87 28.4879 147.998 28.2959C148.142 28.1039 148.214 27.8879 148.214 27.6479C148.198 27.1999 148.046 26.8239 147.758 26.5199C147.47 26.1999 147.094 25.9199 146.63 25.6799C146.182 25.4239 145.694 25.1759 145.166 24.9359C144.654 24.6799 144.166 24.3919 143.702 24.0719C143.254 23.7359 142.878 23.3439 142.574 22.8959C142.27 22.4319 142.118 21.8639 142.118 21.1919C142.118 20.7119 142.238 20.2879 142.478 19.9199C142.734 19.5359 143.054 19.2239 143.438 18.9839C143.838 18.7279 144.27 18.5359 144.734 18.4079C145.214 18.2639 145.678 18.1919 146.126 18.1919C146.59 18.1919 147.11 18.2319 147.686 18.3119C148.262 18.3759 148.926 18.5039 149.678 18.6959L149.342 20.3999Z" fill="#296253"/>
</svg>
