<svg width="114" height="114" viewBox="0 0 114 114" fill="none" xmlns="http://www.w3.org/2000/svg">
<path d="M55.0929 56.9247C55.0929 56.9247 65.8493 51.8539 75.571 42.0064C85.2927 32.1586 91.8865 22.8715 90.2986 21.2628C88.7104 19.6541 79.5423 26.3335 69.8202 36.181C60.0985 46.0289 55.0929 56.9247 55.0929 56.9247ZM55.0929 56.9247C55.0929 56.9247 59.1593 45.6348 59.1593 31.7077C59.1593 17.7814 57.3388 6.49121 55.0929 6.49121C52.8474 6.49121 51.0266 17.7814 51.0266 31.7077C51.0266 45.6348 55.0929 56.9247 55.0929 56.9247ZM55.0929 56.9247C55.0929 56.9247 59.1593 68.2145 59.1593 82.1412C59.1593 96.0679 57.3388 107.358 55.0929 107.358C52.8474 107.358 51.0266 96.0679 51.0266 82.1412C51.0266 68.2145 55.0929 56.9247 55.0929 56.9247ZM55.0929 56.9247C55.0929 56.9247 66.2384 61.0437 79.9871 61.0437C93.7357 61.0437 104.881 59.1994 104.881 56.9247C104.881 54.6496 93.7357 52.8056 79.9871 52.8056C66.2384 52.8056 55.0929 56.9247 55.0929 56.9247ZM55.0929 56.9247C55.0929 56.9247 43.9475 61.0437 30.1988 61.0437C16.4502 61.0437 5.30469 59.1994 5.30469 56.9247C5.30469 54.6496 16.4502 52.8056 30.1988 52.8056C43.9475 52.8056 55.0929 56.9247 55.0929 56.9247ZM55.0929 56.9247C55.0929 56.9247 50.0874 46.0289 40.3653 36.181C30.6436 26.3335 21.4751 19.6541 19.8872 21.2632C18.299 22.8718 24.8928 32.159 34.6145 42.0068C44.3366 51.8543 55.0929 56.9247 55.0929 56.9247ZM55.0929 56.9247C55.0929 56.9247 65.8493 61.995 75.571 71.8429C85.2927 81.6907 91.8865 90.9779 90.2986 92.5865C88.7104 94.1952 79.5423 87.5158 69.8202 77.6683C60.0985 67.8204 55.0929 56.9247 55.0929 56.9247ZM55.0929 56.9247C55.0929 56.9247 50.0874 67.8204 40.3653 77.6683C30.6436 87.5158 21.4751 94.1948 19.8872 92.5865C18.299 90.9779 24.8928 81.6907 34.6145 71.8429C44.3366 61.995 55.0929 56.9247 55.0929 56.9247Z" stroke="#296253" stroke-width="1.1366" stroke-linecap="round" stroke-linejoin="round"/>
<path d="M56.8636 104.841C57.3997 106.453 58.0013 107.358 58.6367 107.358M55.0905 56.9243C55.0905 56.9243 53.6084 52.809 52.4339 46.4831C50.1891 43.2692 47.3434 39.6598 43.909 36.181C34.1873 26.3332 25.0188 19.6541 23.4313 21.2624C23.2794 21.4162 23.2025 21.6398 23.1953 21.9273C27.0514 23.9694 33.5724 29.302 40.3628 36.181C50.0849 46.0285 55.0905 56.9243 55.0905 56.9243Z" stroke="#296253" stroke-width="1.1366" stroke-linecap="round" stroke-linejoin="round"/>
<path d="M55.0905 56.9248C55.0905 56.9248 50.0849 67.8206 40.3629 77.6684C33.5721 84.5471 27.0514 89.88 23.1953 91.9221C23.2025 92.2093 23.2794 92.4332 23.431 92.5867C25.0192 94.1953 34.1873 87.5163 43.909 77.6684C47.3434 74.1897 50.1891 70.5799 52.4339 67.3663C53.6084 61.04 55.0905 56.9248 55.0905 56.9248Z" stroke="#296253" stroke-width="1.1366" stroke-linecap="round" stroke-linejoin="round"/>
<path d="M55.0938 56.9248C55.0938 56.9248 59.1601 68.2146 59.1601 82.1413C59.1601 92.1267 58.2243 100.756 56.8668 104.841C57.4029 106.454 58.0042 107.358 58.6399 107.358C60.8858 107.358 62.7063 96.0684 62.7063 82.1413C62.7063 76.6232 62.0679 71.5187 61.2969 67.3667C57.1877 61.4826 55.0938 56.9248 55.0938 56.9248Z" stroke="#296253" stroke-width="1.1366" stroke-linecap="round" stroke-linejoin="round"/>
<path d="M58.6399 6.49121C58.0042 6.49121 57.4029 7.39556 56.8668 9.00839M55.0938 56.9247C55.0938 56.9247 65.8501 61.995 75.5718 71.8429C84.3653 80.7504 90.5995 89.1991 90.5347 91.9216C92.1991 92.8032 93.3668 93.0715 93.8456 92.5865C95.4335 90.9779 88.8397 81.6907 79.118 71.8429C73.0061 65.6518 66.4855 61.3491 62.4854 59.0069C57.9216 57.9696 55.0938 56.9247 55.0938 56.9247Z" stroke="#296253" stroke-width="1.1366" stroke-linecap="round" stroke-linejoin="round"/>
<path d="M82.1055 52.8204C94.863 52.9981 104.882 54.7678 104.882 56.9247C104.882 59.0816 94.863 60.8513 82.1055 61.0293C82.5783 61.0388 83.0549 61.0437 83.5346 61.0437C97.2832 61.0437 108.429 59.1998 108.429 56.9247C108.429 54.65 97.2832 52.8057 83.5346 52.8057C83.0549 52.8057 82.5783 52.8106 82.1055 52.8204Z" stroke="#296253" stroke-width="1.1366" stroke-linecap="round" stroke-linejoin="round"/>
<path d="M62.4858 54.842C66.4855 52.4999 73.0061 48.1971 79.118 42.0061C88.8397 32.1582 95.4335 22.8711 93.8456 21.2624C93.3668 20.7775 92.1991 21.0461 90.5347 21.9273C90.5995 24.6499 84.3653 33.0986 75.5718 42.0061C65.8501 51.8539 55.0938 56.9243 55.0938 56.9243C55.0938 56.9243 57.9216 55.8794 62.4858 54.842Z" stroke="#296253" stroke-width="1.1366" stroke-linecap="round" stroke-linejoin="round"/>
<path d="M55.0938 56.9247C55.0938 56.9247 57.1877 52.3669 61.2969 46.4831C62.0679 42.3308 62.7063 37.2263 62.7063 31.7077C62.7063 17.7814 60.8858 6.49121 58.6399 6.49121C58.0042 6.49121 57.4029 7.39556 56.8668 9.00839C58.2243 13.0933 59.1601 21.7231 59.1601 31.7077C59.1601 45.6348 55.0938 56.9247 55.0938 56.9247Z" stroke="#296253" stroke-width="1.1366" stroke-linecap="round" stroke-linejoin="round"/>
</svg>
